<svg xmlns="http://www.w3.org/2000/svg" xmlns:xlink="http://www.w3.org/1999/xlink" viewBox="0 0 307 64" class="design-iconfont">
  <defs>
    <filter x="-.7%" y="-1.6%" width="101.3%" height="106.6%" filterUnits="objectBoundingBox" id="e8ags0omo__0f7jpo2wba">
      <feOffset dy="1" in="SourceAlpha" result="shadowOffsetOuter1"/>
      <feGaussianBlur stdDeviation=".5" in="shadowOffsetOuter1" result="shadowBlurOuter1"/>
      <feColorMatrix values="0 0 0 0 0.873804209 0 0 0 0 0.873804209 0 0 0 0 0.873804209 0 0 0 0.5 0" in="shadowBlurOuter1"/>
    </filter>
    <path id="e8ags0omo__dmashnnxqb" d="M0 0H305V61H0z"/>
  </defs>
  <g fill="none" fill-rule="evenodd">
    <g fill-rule="nonzero" transform="translate(1 .940887)">
      <use fill="#000" filter="url(#e8ags0omo__0f7jpo2wba)" xlink:href="#e8ags0omo__dmashnnxqb"/>
      <use fill="#FFF" xlink:href="#e8ags0omo__dmashnnxqb"/>
    </g>
    <text font-family="PingFangSC-Regular, PingFang SC" font-size="14.6205" fill="#101010" transform="translate(1 .940887)">
      <tspan x="137.233491" y="49.5369529">预览</tspan>
    </text>
    <path d="M8.52618325,13.6142092 L2.68400312,7.78464945 L8.60670335,1.88367091 C8.80353024,1.6872692 8.91983705,1.41052135 8.91983705,1.11591879 C8.91983705,0.499931616 8.41882313,0 7.80150241,0 C7.49731539,0 7.22891508,0.116055554 7.02314151,0.31245726 L0.339973729,6.98118793 C0.134200156,7.18651698 0,7.46326484 0,7.78464945 C0,8.09710671 0.134200156,8.38278192 0.339973729,8.58811098 L7.03208818,15.265769 C7.22891508,15.4532434 7.50626207,15.5782263 7.80150241,15.5782263 C8.41882313,15.5782263 8.91983705,15.0782946 8.91983705,14.4623075 C8.91983705,14.1230682 8.76774354,13.8195382 8.52618325,13.6142092 L8.52618325,13.6142092 Z" transform="translate(13.217899 35.481064)" fill="#30303C" fill-rule="nonzero"/>
    <g transform="translate(227.106667 29.477833)" fill-rule="nonzero">
      <path d="M5.30649784,6.19288897 L5.30649784,6.19288942 C5.30649784,7.81068919 6.62082412,9.12217623 8.24212626,9.12217623 C9.8634284,9.12217623 11.1777547,7.81068919 11.1777547,6.19288942 L11.1777547,6.19288942 C11.1777547,4.57508964 9.8634284,3.2636026 8.24212626,3.2636026 C6.62082412,3.2636026 5.30649784,4.57508964 5.30649784,6.19288942 L5.30649784,6.19288897 Z" fill="#000" transform="translate(10.057884 6.792204)"/>
      <path stroke="#000" stroke-width="1.6245" d="M42.6944083 0A6.1 6.08682266 0 1 0 42.6944083 12.17364532A6.1 6.08682266 0 1 0 42.6944083 0Z" transform="translate(10.057884 6.792204)"/>
      <path fill="#000" d="M42.6944083 4.05788177A2.03333333 2.02894089 0 1 0 42.6944083 8.11576355A2.03333333 2.02894089 0 1 0 42.6944083 4.05788177Z" transform="translate(10.057884 6.792204)"/>
      <path d="M12.2960893,6.19302846 L12.2960893,6.19302878 C12.2960893,7.34860104 13.2348928,8.2853765 14.3929667,8.2853765 C15.5510407,8.2853765 16.4898442,7.34860104 16.4898442,6.19302878 L16.4898442,6.19302878 C16.4898442,5.03745652 15.5510407,4.10068106 14.3929667,4.10068106 C13.2348928,4.10068106 12.2960893,5.03745652 12.2960893,6.19302878 L12.2960893,6.19302846 Z" fill="#000" transform="translate(10.057884 6.792204)"/>
      <path d="M0,6.19302846 L0,6.19302878 C0,7.34860104 0.938803483,8.2853765 2.09687744,8.2853765 C3.2549514,8.2853765 4.19375488,7.34860104 4.19375488,6.19302878 L4.19375488,6.19302878 C4.19375488,5.03745652 3.2549514,4.10068106 2.09687744,4.10068106 C0.938803483,4.10068106 0,5.03745652 0,6.19302878 L0,6.19302846 Z" fill="#000" transform="translate(10.057884 6.792204)"/>
      <path stroke="#000" stroke-width=".5" opacity=".3" d="M25.4598752 0L25.4598752 14.6083744" transform="translate(10.057884 5.714883)"/>
      <rect stroke="#000" stroke-width=".5" opacity=".3" width="70.76" height="25.9704433" rx="12.9852217"/>
    </g>
    <path d="M16.8908553,0.406125 C17.681012,0.406125 17.9732497,0.474041484 18.2636506,0.629349558 C18.5227456,0.767915099 18.7260849,0.971254399 18.8646504,1.23034943 C19.0199585,1.52075028 19.087875,1.81298804 19.087875,2.60314469 L19.087875,2.60314469 L19.087875,7.77633542 C19.087875,8.09622277 18.958215,8.38582642 18.7485832,8.59545822 C18.5389514,8.80509003 18.2493478,8.93475 17.9294604,8.93475 L17.9294604,8.93475 L2.60314469,8.93475 C1.81298804,8.93475 1.52075028,8.86683352 1.23034943,8.71152544 C0.971254399,8.5729599 0.767915099,8.3696206 0.629349558,8.11052557 C0.474041484,7.82012472 0.406125,7.52788696 0.406125,6.73773031 L0.406125,6.73773031 L0.406125,2.60314469 C0.406125,1.81298804 0.474041484,1.52075028 0.629349558,1.23034943 C0.767915099,0.971254399 0.971254399,0.767915099 1.23034943,0.629349558 C1.52075028,0.474041484 1.81298804,0.406125 2.60314469,0.406125 L2.60314469,0.406125 Z" stroke="#000" stroke-width=".81225" opacity=".40000001" transform="translate(280.008 13.655125)"/>
    <path d="M20.3081662,3.24949444 C21.0078516,3.43049687 21.524625,4.06605956 21.524625,4.82232115 C21.524625,5.57858274 21.0078516,6.21414543 20.3081662,6.39514786 Z" fill="#000" opacity=".40000001" transform="translate(280.008 13.655125)"/>
    <path d="M2.030625,1.6245 L17.463375,1.6245 C17.6876716,1.6245 17.8695,1.80632836 17.8695,2.030625 L17.8695,7.31025 C17.8695,7.53454664 17.6876716,7.716375 17.463375,7.716375 L2.030625,7.716375 C1.80632836,7.716375 1.6245,7.53454664 1.6245,7.31025 L1.6245,2.030625 C1.6245,1.80632836 1.80632836,1.6245 2.030625,1.6245 Z" fill="#000" transform="translate(280.008 13.655125)"/>
    <text font-family=".SFNS-Regular, .AppleSystemUIFont" font-size="9.747" fill="#030303" transform="translate(250.767 12.842875)">
      <tspan x=".47116846" y="9">100%</tspan>
    </text>
    <path stroke="#000" stroke-width=".81225" d="M-2.84217094e-14 2.91912497L4.8735 7.38649997 2.43675 9.41712497 2.43675 1.29462497 4.8735 3.32524997 -2.84217094e-14 7.79262497" transform="translate(243.95675 12.842875)"/>
    <text font-family="PingFangSC-Regular, PingFang SC" font-size="9.747" fill="#030303" transform="translate(11.8735 12.842875)">
      <tspan x="122.444404" y="10">9:45 AM</tspan>
    </text>
    <g fill="#000">
      <path d="M0.81225,4.467375 L1.6245,4.467375 C2.07309329,4.467375 2.43675,4.83103171 2.43675,5.279625 L2.43675,7.31025 C2.43675,7.75884329 2.07309329,8.1225 1.6245,8.1225 L0.81225,8.1225 C0.363656712,8.1225 5.49368334e-17,7.75884329 0,7.31025 L0,5.279625 C-5.49368334e-17,4.83103171 0.363656712,4.467375 0.81225,4.467375 Z M4.467375,3.249 L5.279625,3.249 C5.72821829,3.249 6.091875,3.61265671 6.091875,4.06125 L6.091875,7.31025 C6.091875,7.75884329 5.72821829,8.1225 5.279625,8.1225 L4.467375,8.1225 C4.01878171,8.1225 3.655125,7.75884329 3.655125,7.31025 L3.655125,4.06125 C3.655125,3.61265671 4.01878171,3.249 4.467375,3.249 Z M8.1225,1.6245 L8.93475,1.6245 C9.38334329,1.6245 9.747,1.98815671 9.747,2.43675 L9.747,7.31025 C9.747,7.75884329 9.38334329,8.1225 8.93475,8.1225 L8.1225,8.1225 C7.67390671,8.1225 7.31025,7.75884329 7.31025,7.31025 L7.31025,2.43675 C7.31025,1.98815671 7.67390671,1.6245 8.1225,1.6245 Z M11.777625,0 L12.589875,0 C13.0384683,2.86170523e-17 13.402125,0.363656712 13.402125,0.81225 L13.402125,7.31025 C13.402125,7.75884329 13.0384683,8.1225 12.589875,8.1225 L11.777625,8.1225 C11.3290317,8.1225 10.965375,7.75884329 10.965375,7.31025 L10.965375,0.81225 C10.965375,0.363656712 11.3290317,-2.86170523e-17 11.777625,0 Z" transform="translate(11.8735 14.1375)"/>
      <path d="M19.0639374,2.29831236 C20.5883302,0.872691607 22.6363136,0 24.888125,0 C27.1399364,0 29.1879198,0.872691607 30.7123126,2.29831236 L29.5628174,3.44780762 C28.3330855,2.31578907 26.6913349,1.6245 24.888125,1.6245 C23.0849151,1.6245 21.4431645,2.31578907 20.2134326,3.44780762 L19.0639374,2.29831236 L19.0639374,2.29831236 Z M21.0758547,4.3102297 C22.0843375,3.39827043 23.4213715,2.842875 24.888125,2.842875 C26.3548785,2.842875 27.6919125,3.39827043 28.7003953,4.3102297 L27.5496558,5.4609692 C26.8368745,4.84201945 25.9062512,4.467375 24.888125,4.467375 C23.8699988,4.467375 22.9393755,4.84201945 22.2265942,5.4609692 L21.0758547,4.3102297 Z M23.0911915,6.32556651 C23.5809337,5.92562686 24.2065162,5.68575 24.888125,5.68575 C25.5697338,5.68575 26.1953163,5.92562686 26.6850585,6.32556651 L24.888125,8.1225 L23.0911915,6.32556651 L23.0911915,6.32556651 Z" transform="translate(11.8735 14.1375)"/>
    </g>
  </g>
</svg>
