<?xml version="1.0" encoding="UTF-8"?>
<svg width="64px" height="56px" viewBox="0 0 64 56" version="1.1" xmlns="http://www.w3.org/2000/svg" xmlns:xlink="http://www.w3.org/1999/xlink">
    <title>编组 31</title>
    <g id="页面-1" stroke="none" stroke-width="1" fill="none" fill-rule="evenodd">
        <g id="编组-35" transform="translate(-489.000000, -696.000000)">
            <g id="编组-32" transform="translate(489.000000, 696.000000)">
                <g id="编组-31备份">
                    <g id="编组-30">
                        <g id="编组-29">
                            <path d="M30.8643283,0.0264173383 L30.8687294,0.0302684805 L35.8879566,21.3927236 C35.8891217,21.3976832 35.8875448,21.4028872 35.8838228,21.4063661 L0.0670736334,54.8834791 C0.0613352508,54.8888427 0.0523353663,54.8885388 0.0469718286,54.8828004 C0.0427402333,54.8782731 0.0419272255,54.8715269 0.0449620724,54.8661239 L30.8449633,0.0318523582 C30.8488099,0.0245926027 30.8574799,0.0225706766 30.8643283,0.0264173383 Z" id="矩形" fill="#04C1F6"></path>
                            <path d="M63.0067616,54.2307597 L41.9967192,47.8963105 L41.9869714,47.8859092 L41.9869714,47.8859092 L30.9033156,0.129138059 C30.9015398,0.121486705 30.9063029,0.113844512 30.9139543,0.11169952 C30.9199909,0.11066774 30.9262397,0.11333674 30.9294015,0.118666514 L63.017273,54.2093857 L63.0188213,54.2201603 L63.0067616,54.2307597 L63.0067616,54.2307597 Z" id="矩形备份-5" fill="#48D4CB"></path>
                            <path d="M0.0397523444,54.9110482 L0.0408869774,54.9053112 L16.0317021,39.8773053 C16.0354148,39.8738165 16.04071,39.8725801 16.0455838,39.874064 L62.9459887,54.1537222 C62.9535029,54.15601 62.9577397,54.1639561 62.9560723,54.1714702 C62.9536469,54.1773985 62.948211,54.1814757 62.9420144,54.181549 L0.0541417168,54.9251023 C0.0462875493,54.9251023 0.0397523444,54.9189024 0.0397523444,54.9110482 Z" id="矩形备份-7" fill="#FCD556"></path>
                        </g>
                    </g>
                </g>
            </g>
        </g>
    </g>
</svg>