<?xml version="1.0" encoding="UTF-8"?>
<svg width="52px" height="52px" viewBox="0 0 52 52" version="1.1" xmlns="http://www.w3.org/2000/svg" xmlns:xlink="http://www.w3.org/1999/xlink">
    <title>编组 69备份 3</title>
    <defs>
        <linearGradient x1="8.84719558%" y1="13.4577698%" x2="93.4342867%" y2="86.5832477%" id="linearGradient-1">
            <stop stop-color="#74D4EB" offset="0%"></stop>
            <stop stop-color="#217BA0" offset="100%"></stop>
        </linearGradient>
    </defs>
    <g id="审方配药" stroke="none" stroke-width="1" fill="none" fill-rule="evenodd">
        <g id="处方首页-卡片-待接单" transform="translate(-974.000000, -100.000000)">
            <g id="编组-9备份-4" transform="translate(212.000000, 76.000000)">
                <g id="编组-28" transform="translate(737.000000, 0.000000)">
                    <g id="编组-69备份-3" transform="translate(25.000000, 24.000000)">
                        <g id="编组-68">
                            <rect id="矩形" fill="url(#linearGradient-1)" opacity="0.797944" x="0" y="4.68" width="52" height="46.8" rx="8"></rect>
                            <rect id="矩形" fill="#FFFFFF" x="6.24" y="19.24" width="39.52" height="3.12" rx="1"></rect>
                            <path d="M10.34,3.64 L19.82,3.64 C20.6484271,3.64 21.32,4.31157288 21.32,5.14 L21.32,7.34 C21.32,8.16842712 20.6484271,8.84 19.82,8.84 L10.34,8.84 C9.51157288,8.84 8.84,8.16842712 8.84,7.34 L8.84,5.14 C8.84,4.31157288 9.51157288,3.64 10.34,3.64 Z" id="矩形备份-13" fill="#EEEEEE" transform="translate(15.080000, 6.240000) rotate(-90.000000) translate(-15.080000, -6.240000) "></path>
                            <path d="M32.18,3.64 L41.66,3.64 C42.4884271,3.64 43.16,4.31157288 43.16,5.14 L43.16,7.34 C43.16,8.16842712 42.4884271,8.84 41.66,8.84 L32.18,8.84 C31.3515729,8.84 30.68,8.16842712 30.68,7.34 L30.68,5.14 C30.68,4.31157288 31.3515729,3.64 32.18,3.64 Z" id="矩形备份-20" fill="#EEEEEE" transform="translate(36.920000, 6.240000) rotate(-90.000000) translate(-36.920000, -6.240000) "></path>
                        </g>
                        <g id="编组-71" transform="translate(17.680000, 27.560000)" fill="#FFFFFF">
                            <path d="M7.22,-1.36424205e-12 L9.42,-1.36424205e-12 C10.2484271,-1.36417219e-12 10.92,0.671572875 10.92,1.5 L10.92,15.14 C10.92,15.9684271 10.2484271,16.64 9.42,16.64 L7.22,16.64 C6.39157288,16.64 5.72,15.9684271 5.72,15.14 L5.72,1.5 C5.72,0.671572875 6.39157288,-1.36386783e-12 7.22,-1.36424205e-12 Z" id="矩形备份-21" transform="translate(8.320000, 8.320000) scale(-1, 1) rotate(90.000000) translate(-8.320000, -8.320000) "></path>
                            <rect id="矩形" x="5.72" y="0" width="5.2" height="16.64" rx="1.5"></rect>
                        </g>
                    </g>
                </g>
            </g>
        </g>
    </g>
</svg>