<?xml version="1.0" encoding="UTF-8"?>
<svg xmlns="http://www.w3.org/2000/svg" xmlns:xlink="http://www.w3.org/1999/xlink" width="20px" height="13px" viewBox="0 0 20 13" version="1.1">
  <title>Group 41备份 2</title>
  <defs>
    <linearGradient x1="67.492646%" y1="96.1425378%" x2="25.9534282%" y2="13.301603%" id="linearGradient-1">
      <stop stop-color="#18B394" offset="0%"></stop>
      <stop stop-color="#FFFFFF" stop-opacity="0" offset="100%"></stop>
    </linearGradient>
  </defs>
  <g id="页面-1" stroke="none" stroke-width="1" fill="none" fill-rule="evenodd">
    <g id="Icons-Kit" transform="translate(-438.000000, -101.000000)">
      <g id="编组-59备份-4" transform="translate(438.000000, 101.000000)">
        <g id="Group-41备份-2" transform="translate(10.000000, 6.276190) scale(-1, 1) translate(-10.000000, -6.276190) ">
          <path d="M12.9254307,0.882946552 C13.810017,0.374502 14.9392916,0.679425105 15.4477361,1.56401137 L15.4477361,1.56401137 C15.6121915,1.85012907 15.6919862,2.15469497 15.6979096,2.45645469 L15.7014674,2.48386156 C15.7120319,2.59948255 15.7168542,2.70892157 15.720809,2.81869964 L15.7283977,3.02652286 C15.7492862,3.5198003 15.8118841,4.09757718 16.3243926,5.30592355 C16.6070083,5.97224919 17.2789401,6.84000474 17.5332757,7.12954534 C18.092288,7.76593559 18.7553737,8.13020036 19.1946395,8.45019807 C19.2584095,8.49334488 19.3201615,8.54174882 19.3789322,8.5943122 C19.4507483,8.65611862 19.511142,8.71664095 19.5586428,8.77850521 L19.6586503,8.9091917 L19.6586503,8.9091917 L19.7489294,9.05127371 C20.2622144,9.94428138 19.9577507,11.0765823 19.0718314,11.5882737 C19.0707104,11.5889211 19.0695887,11.5895674 19.0684664,11.5902125 C18.2304373,12.0718968 17.1727987,11.823578 16.6314748,11.043968 L16.6108971,11.0119063 L16.5697146,10.958695 C16.0177956,10.1415529 16.3809784,8.5226931 15.3623227,6.76019138 C14.3840011,5.06747648 13.8207507,4.71262885 12.911552,4.09393405 C12.8382383,4.05193067 12.768357,4.00430759 12.7017095,3.95173276 C12.6871383,3.94014288 12.6709917,3.92895603 12.6547304,3.9176561 C12.5893866,3.8722488 12.5390965,3.82256077 12.5025057,3.76942585 C12.4061134,3.66708877 12.3189656,3.55062605 12.2449677,3.42188535 L12.2449677,3.42188535 C11.7316827,2.52887768 12.0361464,1.39657677 12.9220657,0.884885381 C12.9231867,0.884237926 12.9243084,0.883591649 12.9254307,0.882946552 Z" id="形状结合" fill="url(#linearGradient-1)"></path>
          <path d="M11.7002499,0.1010568 C12.7230421,0.101649521 13.5520309,0.930638644 13.5526232,1.95343086 L13.5576313,10.6010953 C13.5582227,11.6223568 12.7308062,12.4507322 11.7095447,12.4513236 C11.7088306,12.4513241 11.7081164,12.4513241 11.7074022,12.4513236 C10.68461,12.4507309 9.85562121,11.6217418 9.85502889,10.5989496 L9.85002081,1.95128515 C9.84942937,0.930023687 10.6768459,0.101648238 11.6981074,0.1010568 C11.6988215,0.101056386 11.6995357,0.101056386 11.7002499,0.1010568 Z" id="Rectangle备份" fill="#18B394" transform="translate(11.703826, 6.276190) rotate(-330.000000) translate(-11.703826, -6.276190) "></path>
          <path d="M4.69089789,0.1010568 C5.71369011,0.101649521 6.54267891,0.930638644 6.54327123,1.95343086 L6.54827931,10.6010953 C6.54887075,11.6223568 5.72145421,12.4507322 4.70019275,12.4513236 C4.69947858,12.4513241 4.69876441,12.4513241 4.69805025,12.4513236 C3.67525803,12.4507309 2.84626923,11.6217418 2.84567691,10.5989496 L2.84066883,1.95128515 C2.84007739,0.930023687 3.66749393,0.101648238 4.68875539,0.1010568 C4.68946956,0.101056386 4.69018373,0.101056386 4.69089789,0.1010568 Z" id="Rectangle" fill="#18B394" transform="translate(4.694474, 6.276190) rotate(-330.000000) translate(-4.694474, -6.276190) "></path>
        </g>
      </g>
    </g>
  </g>
</svg>
