<?xml version="1.0" encoding="UTF-8"?>
<svg xmlns="http://www.w3.org/2000/svg" xmlns:xlink="http://www.w3.org/1999/xlink" width="54px" height="54px" viewBox="0 0 54 54" version="1.1">
  <title>cancel</title>
  <defs>
    <filter x="-5.9%" y="-1.5%" width="111.8%" height="103.2%" filterUnits="objectBoundingBox" id="filter-1">
      <feOffset dx="2" dy="2" in="SourceAlpha" result="shadowOffsetOuter1"></feOffset>
      <feGaussianBlur stdDeviation="10" in="shadowOffsetOuter1" result="shadowBlurOuter1"></feGaussianBlur>
      <feColorMatrix values="0 0 0 0 0   0 0 0 0 0   0 0 0 0 0  0 0 0 0.3 0" type="matrix" in="shadowBlurOuter1" result="shadowMatrixOuter1"></feColorMatrix>
      <feMerge>
        <feMergeNode in="shadowMatrixOuter1"></feMergeNode>
        <feMergeNode in="SourceGraphic"></feMergeNode>
      </feMerge>
    </filter>
  </defs>
  <g id="审方配药" stroke="none" stroke-width="1" fill="none" fill-rule="evenodd" fill-opacity="0.2">
    <g id="【合理用药】各状态" transform="translate(-6773.000000, -211.000000)" fill="#000000">
      <g id="添加药品-查无此药备份" filter="url(#filter-1)" transform="translate(6048.000000, 192.000000)">
        <g id="cancel" transform="translate(740.000000, 34.000000)">
          <path d="M10,0 C4.5,0 0,4.5 0,10 C0,15.5 4.5,20 10,20 C15.5,20 20,15.5 20,10 C20,4.5 15.5,0 10,0 L10,0 Z M15,13.6 L13.6,15 L10,11.4 L6.4,15 L5,13.6 L8.6,10 L5,6.4 L6.4,5 L10,8.6 L13.6,5 L15,6.4 L11.4,10 L15,13.6 L15,13.6 Z" id="Shape"></path>
        </g>
      </g>
    </g>
  </g>
</svg>
