<?xml version="1.0" encoding="UTF-8"?>
<svg width="156px" height="156px" viewBox="0 0 156 156" version="1.1" xmlns="http://www.w3.org/2000/svg" xmlns:xlink="http://www.w3.org/1999/xlink">
    <title>编组 2备份 2</title>
    <g id="审方配药" stroke="none" stroke-width="1" fill="none" fill-rule="evenodd" opacity="0.500276838">
        <g id="编组-2备份-2" transform="translate(3.000000, 3.000000)">
            <circle id="椭圆形" stroke="#46A0C0" stroke-width="5" cx="75" cy="75" r="75"></circle>
            <circle id="椭圆形备份" stroke="#46A0C0" stroke-width="2" cx="75" cy="75" r="67.1052632"></circle>
            <g id="编组" transform="translate(26.876464, 15.000000)" fill="#46A0C0">
                <path d="M48.1235363,10.0395154 L45.8250863,10.8975535 C45.3076793,11.0907075 44.7316558,10.8278485 44.5385018,10.3104416 C44.4916648,10.184978 44.4705057,10.0513847 44.4762799,9.91758829 L44.5820625,7.46648406 L44.5820625,7.46648406 L43.0557597,5.54567653 C42.7121717,5.11328114 42.7841644,4.48422236 43.2165598,4.14063442 C43.3214093,4.05731937 43.4419256,3.99591329 43.5709579,3.96005958 L45.9347851,3.30323194 L45.9347851,3.30323194 L47.2899281,1.25806951 C47.5949861,0.797680436 48.2155035,0.67175967 48.6758926,0.976817607 C48.7875302,1.05078969 48.8831724,1.1464319 48.9571445,1.25806951 L50.3122875,3.30323194 L50.3122875,3.30323194 L52.6761147,3.96005958 C53.2082389,4.10791887 53.519747,4.65915434 53.3718878,5.19127845 C53.336034,5.32031076 53.274628,5.44082698 53.1913129,5.54567653 L51.6650101,7.46648406 L51.6650101,7.46648406 L51.7707927,9.91758829 C51.7946055,10.4693594 51.3666108,10.9359625 50.8148396,10.9597753 C50.6810432,10.9655496 50.54745,10.9443905 50.4219863,10.8975535 L48.1235363,10.0395154 L48.1235363,10.0395154 Z" id="星形"></path>
                <path d="M48.1235363,115.322431 L43.9689223,116.873397 C43.4515153,117.066551 42.8754919,116.803692 42.6823378,116.286285 C42.6355008,116.160821 42.6143417,116.027228 42.620116,115.893431 L42.8113256,111.462884 L42.8113256,111.462884 L40.0524233,107.990886 C39.7088354,107.558491 39.780828,106.929432 40.2132234,106.585844 C40.318073,106.502529 40.4385892,106.441123 40.5676215,106.405269 L44.8404096,105.218006 L44.8404096,105.218006 L47.2899281,101.521227 C47.5949861,101.060838 48.2155035,100.934918 48.6758926,101.239976 C48.7875302,101.313948 48.8831724,101.40959 48.9571445,101.521227 L51.406663,105.218006 L51.406663,105.218006 L55.6794511,106.405269 C56.2115752,106.553128 56.5230834,107.104364 56.3752241,107.636488 C56.3393704,107.76552 56.2779643,107.886036 56.1946493,107.990886 L53.435747,111.462884 L53.435747,111.462884 L53.6269566,115.893431 C53.6507695,116.445203 53.2227747,116.911806 52.6710036,116.935618 C52.5372072,116.941393 52.4036139,116.920234 52.2781503,116.873397 L48.1235363,115.322431 L48.1235363,115.322431 Z" id="星形备份"></path>
                <path d="M8.2868375,97.8477395 L5.98838746,98.7057775 C5.4709805,98.8989316 4.894957,98.6360726 4.70180297,98.1186657 C4.65496595,97.9932021 4.63380686,97.8596088 4.63958113,97.7258124 L4.74536372,95.2747081 L4.74536372,95.2747081 L3.21906088,93.3539006 C2.87547294,92.9215052 2.9474656,92.2924464 3.37986098,91.9488585 C3.48471053,91.8655435 3.60522675,91.8041374 3.73425906,91.7682837 L6.09808634,91.111456 L6.09808634,91.111456 L7.45322934,89.0662936 C7.75828728,88.6059045 8.37880468,88.4799838 8.83919376,88.7850417 C8.95083137,88.8590138 9.04647358,88.954656 9.12044566,89.0662936 L10.4755887,91.111456 L10.4755887,91.111456 L12.8394159,91.7682837 C13.3715401,91.916143 13.6830482,92.4673784 13.535189,92.9995025 C13.4993352,93.1285348 13.4379292,93.2490511 13.3546141,93.3539006 L11.8283113,95.2747081 L11.8283113,95.2747081 L11.9340939,97.7258124 C11.9579067,98.2775835 11.529912,98.7441865 10.9781408,98.7679994 C10.8443444,98.7737737 10.7107511,98.7526146 10.5852875,98.7057775 L8.2868375,97.8477395 L8.2868375,97.8477395 Z" id="星形备份-2" transform="translate(8.286837, 93.520909) rotate(45.000000) translate(-8.286837, -93.520909) "></path>
                <path d="M87.9602351,97.8477395 L85.6617851,98.7057775 C85.1443781,98.8989316 84.5683546,98.6360726 84.3752006,98.1186657 C84.3283636,97.9932021 84.3072045,97.8596088 84.3129787,97.7258124 L84.4187613,95.2747081 L84.4187613,95.2747081 L82.8924585,93.3539006 C82.5488705,92.9215052 82.6208632,92.2924464 83.0532586,91.9488585 C83.1581081,91.8655435 83.2786244,91.8041374 83.4076567,91.7682837 L85.7714839,91.111456 L85.7714839,91.111456 L87.1266269,89.0662936 C87.4316849,88.6059045 88.0522023,88.4799838 88.5125914,88.7850417 C88.624229,88.8590138 88.7198712,88.954656 88.7938433,89.0662936 L90.1489863,91.111456 L90.1489863,91.111456 L92.5128135,91.7682837 C93.0449377,91.916143 93.3564459,92.4673784 93.2085866,92.9995025 C93.1727329,93.1285348 93.1113268,93.2490511 93.0280117,93.3539006 L91.5017089,95.2747081 L91.5017089,95.2747081 L91.6074915,97.7258124 C91.6313043,98.2775835 91.2033096,98.7441865 90.6515384,98.7679994 C90.517742,98.7737737 90.3841488,98.7526146 90.2586851,98.7057775 L87.9602351,97.8477395 L87.9602351,97.8477395 Z" id="星形备份-3" transform="translate(87.960235, 93.520909) rotate(-45.000000) translate(-87.960235, -93.520909) "></path>
                <path d="M21.7650788,29.1793902 L21.7650788,28.016975 L30.7046055,28.016975 L30.7046055,29.1793902 L32.0192418,29.1793902 L32.0192418,26.7992066 L27.1620067,26.7992066 L27.2588746,26.7715301 C27.1066536,26.3840583 26.7883732,25.7474976 26.5392843,25.2631579 L25.1969714,25.6367914 C25.376869,25.9827483 25.5706049,26.4394114 25.7228259,26.7992066 L20.4919574,26.7992066 L20.4919574,29.1793902 L21.7650788,29.1793902 Z M26.9129177,38.0774021 L26.9129177,35.6418654 L29.929662,35.6418654 L29.929662,36.2922644 L31.2166218,36.2922644 L31.2166218,29.6914064 L26.9129177,29.6914064 L26.9129177,28.4321233 L25.5844432,28.4321233 L25.5844432,29.6914064 L21.3084157,29.6914064 L21.3084157,36.3476175 L22.5538606,36.3476175 L22.5538606,35.6418654 L25.5844432,35.6418654 L25.5844432,38.0774021 L26.9129177,38.0774021 Z M29.929662,32.1131048 L26.9129177,32.1131048 L26.9129177,30.8123068 L29.929662,30.8123068 L29.929662,32.1131048 Z M25.5844432,32.1131048 L22.5538606,32.1131048 L22.5538606,30.8123068 L25.5844432,30.8123068 L25.5844432,32.1131048 Z M29.929662,34.520965 L26.9129177,34.520965 L26.9129177,33.2063287 L29.929662,33.2063287 L29.929662,34.520965 Z M25.5844432,34.520965 L22.5538606,34.520965 L22.5538606,33.2063287 L25.5844432,33.2063287 L25.5844432,34.520965 Z M39.8586256,35.0606578 C42.3633536,33.8982425 44.4944482,31.919369 45.7122166,29.7605978 L44.4944482,29.3592878 C44.2868741,29.7605978 44.0101086,30.1895844 43.7195048,30.5770561 L41.6022484,30.6877624 C42.0727498,29.9820102 42.6401192,29.068684 43.082944,28.3490936 L46.9161467,28.3490936 L46.9161467,27.1728401 L44.0377851,27.1728401 C43.9409172,26.6608238 43.6087985,25.8997186 43.2628416,25.318511 L42.0589116,25.6921445 C42.2941623,26.1488076 42.529413,26.7161769 42.6539574,27.1728401 L39.2220648,27.1728401 L39.2220648,28.3490936 L41.7267929,28.3490936 C41.2562915,29.0963605 40.5920542,30.1757461 40.3568035,30.4248351 C40.1077145,30.6877624 39.6648897,30.7846303 39.3742859,30.8538217 C39.4711538,31.1305872 39.6648897,31.7394714 39.7202428,32.0300752 C39.8743726,31.9732905 40.0903221,31.9260166 40.7026067,31.8603771 L41.0656236,31.8237578 C41.469345,31.7851163 42.0006954,31.7399486 42.7093106,31.6841183 C41.7267929,32.6527976 40.481348,33.4830942 39.1528735,34.0643019 C39.3742859,34.3133908 39.7202428,34.770054 39.8586256,35.0606578 Z M37.4922802,38.1050786 L37.4922802,31.3104848 C37.8243989,31.9470455 38.1565175,32.6389594 38.3225769,33.0402694 L39.0836821,32.1407814 C38.8484314,31.7671479 37.8520754,30.2310992 37.4922802,29.719083 L37.4922802,29.2070667 L38.9591376,29.2070667 L38.9591376,28.016975 L37.4922802,28.016975 L37.4922802,25.4153789 L36.2606736,25.4153789 L36.2606736,28.016975 L34.5032125,28.016975 L34.5032125,29.2070667 L36.2053205,29.2070667 C35.8178488,30.9922044 35.0152287,33.0679459 34.1572556,34.1611698 C34.3925063,34.5071267 34.6692718,35.0744961 34.8076546,35.4342912 C35.3335091,34.6593478 35.8593636,33.4554177 36.2606736,32.168458 L36.2606736,38.1050786 L37.4922802,38.1050786 Z M39.2082266,38.1189169 C40.9103346,37.5515476 42.432545,36.7489275 43.7195048,35.7525716 C44.6051545,36.4998386 45.5599956,37.3854883 46.0581735,37.9805342 L47.0545294,37.122561 C46.5148366,36.5413534 45.5046424,35.6833802 44.6051545,34.9776281 C45.4631276,34.1888463 46.182718,33.3170349 46.7362491,32.3483556 L45.4216128,31.8778541 C44.2591975,34.119655 41.6576015,36.070852 38.4609596,37.0395313 C38.6962103,37.3162969 39.0560055,37.8144748 39.2082266,38.1189169 Z M60.235488,35.7802482 C60.6229597,35.6141888 60.7336659,35.323585 60.7336659,34.7423774 L60.7336659,28.8334333 L58.9485282,28.8334333 C58.6994393,28.6812122 58.4088354,28.5289912 58.0628785,28.3767701 C59.0453962,27.8232391 60.0002373,27.117487 60.7198276,26.4117349 L59.9448842,25.8028507 L59.6957952,25.8720421 L53.1502903,25.8720421 L53.1502903,26.868398 L58.5333799,26.868398 C58.0628785,27.2143549 57.5093475,27.5879884 56.9696547,27.8509156 C56.3054174,27.5741501 55.6273418,27.3112228 55.0461342,27.117487 L54.2158376,27.8232391 C54.9492663,28.1000046 55.8210777,28.4736381 56.5821829,28.8334333 L53.0949372,28.8334333 L53.0949372,35.9324692 L54.2988673,35.9324692 L54.2988673,33.7460215 L56.2915791,33.7460215 L56.2915791,35.8771161 L57.4539944,35.8771161 L57.4539944,33.7460215 L59.5158976,33.7460215 L59.5158976,34.7285391 C59.5158976,34.8945985 59.4605445,34.9499516 59.2944851,34.9499516 C59.239132,34.9499516 59.132543,34.9517814 58.9920185,34.9527795 L58.7579426,34.9533202 C58.545274,34.9526963 58.2930971,34.9486935 58.035202,34.9361133 C58.187423,35.2267171 58.3396441,35.6557037 58.3811589,35.973984 C59.2529703,35.973984 59.8341779,35.9601458 60.235488,35.7802482 Z M51.282123,29.0410074 L52.1954492,28.169196 C51.6972713,27.5464735 50.6040474,26.5777942 49.8014274,25.9135569 L48.9157776,26.6746621 C49.732236,27.3942525 50.7977833,28.4044467 51.282123,29.0410074 Z M56.2915791,30.7984686 L54.2988673,30.7984686 L54.2988673,29.8021126 L56.2915791,29.8021126 L56.2915791,30.7984686 Z M59.5158976,30.7984686 L57.4539944,30.7984686 L57.4539944,29.8021126 L59.5158976,29.8021126 L59.5158976,30.7984686 Z M49.3862791,37.9943724 C50.0366781,37.1087227 50.7147536,36.319941 51.1575785,36.319941 C51.4620206,36.319941 51.9186837,36.7627658 52.4722147,37.0810462 C53.4408941,37.6484155 54.5617945,37.8006366 56.2500643,37.8006366 C57.7307599,37.8006366 60.0832669,37.7314452 61.0796228,37.6622538 C61.0934611,37.3301352 61.287197,36.7489275 61.4255798,36.4168089 C60.0140755,36.5828682 57.8553044,36.7074127 56.2915791,36.7074127 C54.783207,36.7074127 53.5931152,36.6105448 52.6936272,36.070852 C52.2646406,35.8079247 52.0017133,35.6003506 51.7526244,35.4481295 L51.7526244,30.5908944 L48.6666887,30.5908944 L48.6666887,31.7809862 L50.5210177,31.7809862 L50.5210177,35.420453 C49.9259718,35.669542 49.2478963,36.2369113 48.5974973,36.9288251 L49.3862791,37.9943724 Z M59.5158976,32.7773421 L57.4539944,32.7773421 L57.4539944,31.7394714 L59.5158976,31.7394714 L59.5158976,32.7773421 Z M56.2915791,32.7773421 L54.2988673,32.7773421 L54.2988673,31.7394714 L56.2915791,31.7394714 L56.2915791,32.7773421 Z M72.8490771,35.4342912 C73.3887699,35.2405554 73.5825058,34.8807602 73.5825058,34.0781401 L73.5825058,29.0410074 L75.3814818,29.0410074 L75.3814818,27.8232391 L73.5825058,27.8232391 L73.5825058,25.470732 L72.2678695,25.470732 L72.2678695,27.8232391 L67.0646775,27.8232391 L67.0646775,29.0410074 L72.2678695,29.0410074 L72.2678695,34.0643019 C72.2678695,34.3133908 72.1710016,34.3825822 71.9080743,34.3964205 C71.6313088,34.4102588 70.6487912,34.4102588 69.7077883,34.3687439 C69.8876859,34.7285391 70.0952601,35.3097468 70.1506132,35.6833802 C71.4375729,35.6833802 72.3232226,35.6418654 72.8490771,35.4342912 Z M65.4594374,28.8472716 L66.5249847,28.1000046 C66.1098364,27.4496056 65.2103484,26.4947645 64.4492432,25.8028507 L63.4528873,26.467088 C64.2001542,27.1866784 65.0858039,28.1830343 65.4594374,28.8472716 Z M69.5002142,33.2478435 L70.5795998,32.5836063 C70.192128,31.8640159 69.3203166,30.7292772 68.6284028,29.9128189 L67.6043703,30.4801882 C68.2824458,31.3381614 69.1265807,32.5282531 69.5002142,33.2478435 Z M63.8126825,37.8836662 C64.4215667,36.9980165 65.0581274,36.1400434 65.487114,36.1400434 C65.791556,36.1400434 66.2482192,36.5967065 66.8432651,36.9426634 C67.839621,37.523871 68.988198,37.6760921 70.7041443,37.6760921 C72.0464571,37.6760921 74.3989641,37.5930624 75.3538052,37.5377093 C75.3814818,37.1502376 75.5890559,36.4860003 75.7551153,36.1262051 C74.4128024,36.2922644 72.2678695,36.4168089 70.7456591,36.4168089 C69.2234487,36.4168089 67.991842,36.319941 67.1061923,35.7802482 C66.691044,35.5449975 66.4142785,35.3374233 66.1651895,35.171364 L66.1651895,30.5078648 L63.1484452,30.5078648 L63.1484452,31.7117948 L64.9059063,31.7117948 L64.9059063,35.0606578 C64.2970222,35.3097468 63.5912701,35.8771161 62.8993562,36.624383 L63.8126825,37.8836662 Z M3.95248367,58.4684211 L3.95248367,55.0815789 L19.2051153,55.0815789 L19.2051153,58.4684211 L21.4787995,58.4684211 L21.4787995,52.9736842 L13.2603784,52.9736842 C12.9287995,52.0973684 12.3840626,51.0078947 11.86301,50.1552632 L9.6366942,50.8184211 C9.99195736,51.4578947 10.3709047,52.2631579 10.631431,52.9736842 L1.74985209,52.9736842 L1.74985209,58.4684211 L3.95248367,58.4684211 Z M17.831431,59.2736842 L17.831431,57.2605263 L5.34985209,57.2605263 L5.34985209,59.2736842 L17.831431,59.2736842 Z M2.05774683,72.1578947 C8.04985209,70.9263158 9.23406262,68.3921053 9.56564157,63.6552632 L13.2840626,63.6552632 L13.2840626,68.9605263 C13.2840626,71.1394737 13.8524837,71.7789474 16.2682731,71.7789474 L19.6077468,71.7789474 C21.6209047,71.7789474 22.21301,70.95 22.4498521,67.6342105 C21.881431,67.4921053 20.9577468,67.1368421 20.4603784,66.7578947 C20.3656416,69.3631579 20.2235363,69.7657895 19.4182731,69.7657895 L16.5524837,69.7657895 C15.6524837,69.7657895 15.5103784,69.6710526 15.5103784,68.9605263 L15.5103784,63.6552632 L22.0709047,63.6552632 L22.0709047,61.5947368 L1.20511525,61.5947368 L1.20511525,63.6552632 L7.31564157,63.6552632 C7.05511525,67.5157895 6.17879946,69.3394737 0.897220514,70.2868421 C1.29985209,70.7368421 1.86827315,71.5894737 2.05774683,72.1578947 Z M26.6893258,72.3710526 C28.7735363,69.3157895 29.1761679,64.5789474 29.1998521,61.2157895 L32.9893258,61.2157895 C32.9182731,64.7921053 32.7761679,66.1421053 32.5156416,66.4736842 C32.3498521,66.6868421 32.11301,66.7578947 31.781431,66.7578947 C31.4024837,66.7578947 30.4787995,66.7342105 29.5077468,66.6394737 C29.8393258,67.2078947 30.0524837,68.0605263 30.0998521,68.7 C31.2366942,68.7473684 32.3024837,68.7473684 32.8945889,68.6526316 C33.5340626,68.5815789 33.9840626,68.3921053 34.4103784,67.8947368 C34.9077468,67.2315789 35.0261679,65.1947368 35.1445889,60.0552632 L35.1445889,59.2026316 L29.1998521,59.2026316 L29.1998521,56.3368421 L36.7787995,56.3368421 C37.06301,60.0315789 37.6077468,63.4184211 38.4603784,66.0947368 C37.0156416,67.7763158 35.26301,69.15 33.2972205,70.2394737 C33.7945889,70.6421053 34.5761679,71.5657895 34.9077468,72.0394737 C36.5419574,71.0447368 38.0340626,69.8368421 39.3840626,68.4157895 C40.4498521,70.6421053 41.8235363,71.9684211 43.5524837,71.9684211 C45.4945889,71.9684211 46.2998521,70.8552632 46.6551153,66.6868421 C46.06301,66.4736842 45.281431,65.9763158 44.7603784,65.4552632 C44.6182731,68.5105263 44.3340626,69.7184211 43.7182731,69.7184211 C42.7235363,69.7184211 41.7998521,68.4868421 40.9945889,66.4736842 C42.7235363,64.2 44.1209047,61.5236842 45.1156416,58.4684211 L42.8893258,57.9236842 C42.2024837,60.1026316 41.3261679,62.0684211 40.1893258,63.8210526 C39.6445889,61.7131579 39.2656416,59.1552632 39.0287995,56.3368421 L46.4656416,56.3368421 L46.4656416,54.1815789 L44.0498521,54.1815789 L45.1866942,52.9736842 C44.26301,52.1684211 42.4866942,51.0789474 41.0893258,50.3447368 L39.76301,51.6947368 C41.0182731,52.3815789 42.5577468,53.4 43.481431,54.1815789 L38.9103784,54.1815789 C38.8393258,52.95 38.8156416,51.6947368 38.8393258,50.4157895 L36.5182731,50.4157895 C36.5182731,51.6710526 36.5656416,52.95 36.6366942,54.1815789 L26.9024837,54.1815789 L26.9024837,60.8842105 C26.9024837,63.9394737 26.7366942,68.0131579 24.8419574,70.8552632 C25.3393258,71.1394737 26.3103784,71.9210526 26.6893258,72.3710526 Z M51.6761679,72.0394737 L51.6761679,70.4763158 L57.76301,70.4763158 L57.76301,71.7078947 L59.5393258,71.7078947 L59.5393258,55.6026316 L56.9577468,55.6026316 L56.9577468,53.2342105 L60.0366942,53.2342105 L60.0366942,51.2921053 L49.4261679,51.2921053 L49.4261679,53.2342105 L52.7182731,53.2342105 L52.7182731,55.6026316 L49.9472205,55.6026316 L49.9472205,72.0394737 L51.6761679,72.0394737 Z M67.8761679,71.85 C70.1498521,71.85 70.7419574,70.7368421 70.9787995,66.8526316 C70.3866942,66.7105263 69.4866942,66.3315789 68.9893258,65.9289474 C68.8472205,69.2210526 68.681431,69.8131579 67.7103784,69.8131579 L64.4893258,69.8131579 C63.4945889,69.8131579 63.3051153,69.6473684 63.3051153,68.7236842 L63.3051153,60.8131579 L67.9709047,60.8131579 L67.9709047,62.3763158 L70.1024837,62.3763158 L70.1024837,51.4815789 L61.0551153,51.4815789 L61.0551153,53.5894737 L67.9709047,53.5894737 L67.9709047,58.7289474 L61.1261679,58.7289474 L61.1261679,68.7236842 C61.1261679,71.2105263 61.8603784,71.85 64.2051153,71.85 L67.8761679,71.85 Z M55.4182731,55.6026316 L54.2340626,55.6026316 L54.2340626,53.2342105 L55.4182731,53.2342105 L55.4182731,55.6026316 Z M57.76301,61.9736842 C57.7156416,61.9263158 57.6919574,61.9026316 57.6445889,61.8789474 C57.6209047,61.9263158 57.5498521,61.95 57.31301,61.95 L56.6498521,61.95 C56.4345411,61.95 56.3953936,61.9108525 56.3900553,61.672409 L56.3893258,57.45 L57.76301,57.45 L57.76301,61.9736842 Z M51.6761679,57.45 L53.0498521,57.45 L53.0498521,59.2973684 C53.0498521,60.4815789 52.8603784,61.9263158 51.6761679,63.0394737 L51.6761679,57.45 Z M57.76301,68.7236842 L51.6761679,68.7236842 L51.6761679,66.6394737 L57.76301,66.6394737 L57.76301,68.7236842 Z M51.6761679,63.0394737 C51.91301,63.2052632 52.36301,63.5842105 52.5524837,63.8210526 C53.8787995,62.5421053 54.16301,60.7184211 54.16301,59.3210526 L54.16301,57.45 L55.2761679,57.45 L55.2761679,61.6184211 C55.2761679,62.85 55.5603784,63.1342105 56.531431,63.1342105 L57.5024837,63.1342105 C57.5972205,63.1342105 57.6919574,63.1342105 57.76301,63.1105263 L57.76301,65.0526316 L51.6761679,65.0526316 L51.6761679,63.0394737 L51.6761679,63.0394737 Z M81.0919574,55.6026316 L81.0919574,54.1105263 L87.0366942,54.1105263 L87.0366942,55.5078947 L89.1682731,55.5078947 L89.1682731,54.1105263 L94.4972205,54.1105263 L94.4972205,52.1684211 L89.1682731,52.1684211 L89.1682731,50.4157895 L87.0366942,50.4157895 L87.0366942,52.1684211 L81.0919574,52.1684211 L81.0919574,50.4157895 L78.9366942,50.4157895 L78.9366942,52.1684211 L73.7972205,52.1684211 L73.7972205,54.1105263 L78.9366942,54.1105263 L78.9366942,55.6026316 L81.0919574,55.6026316 Z M90.8024837,71.9447368 C91.5603784,71.85 92.1051153,71.6131579 92.5551153,70.9973684 C93.3603784,70.0263158 93.6445889,67.0657895 93.9761679,58.8 C93.9998521,58.5157895 94.0235363,57.8289474 94.0235363,57.8289474 L86.9419574,57.8289474 C87.2261679,57.1421053 87.4866942,56.4315789 87.6998521,55.7210526 L85.6156416,55.2473684 C84.9287995,57.7105263 83.6498521,60.15 82.1103784,61.7131579 C82.631431,61.9736842 83.5077468,62.5657895 83.9103784,62.8973684 C84.6682731,62.0447368 85.4024837,60.9315789 86.0656416,59.7 L91.8209047,59.7 C91.5603784,66.4263158 91.2524837,69.0315789 90.6840626,69.6236842 C90.4945889,69.9078947 90.2577468,69.9789474 89.831431,69.9789474 L89.5279308,69.9781668 C89.0029463,69.9747841 88.1261679,69.9567434 87.2024837,69.8605263 C87.581431,70.4526316 87.7945889,71.3526316 87.8419574,71.9684211 C89.0024837,72.0157895 90.1393258,72.0157895 90.8024837,71.9447368 Z M74.4840626,67.3973684 C75.0287995,67.1131579 75.9761679,66.9236842 82.2524837,66.1184211 C82.2524837,65.6684211 82.3235363,64.8394737 82.4182731,64.2710526 L77.4919574,64.8157895 C79.2445889,63.1815789 80.9498521,61.2157895 82.4656416,59.1789474 L80.71301,58.2315789 C80.26301,58.9421053 79.7419574,59.6763158 79.2209047,60.3868421 L76.4735363,60.5289474 C77.6103784,59.25 78.6998521,57.7105263 79.5998521,56.1710526 L77.7051153,55.3657895 C76.781431,57.3315789 75.2656416,59.2973684 74.8156416,59.8421053 C74.3656416,60.3631579 73.96301,60.7421053 73.5840626,60.8131579 C73.7972205,61.3342105 74.1051153,62.2578947 74.2235363,62.7078947 C74.5787995,62.5421053 75.1472205,62.4236842 77.681431,62.2105263 C76.8287995,63.2052632 76.0472205,63.9868421 75.6919574,64.2710526 C74.9577468,65.0052632 74.3893258,65.4552632 73.8445889,65.55 C74.081431,66.0473684 74.3893258,66.9947368 74.4840626,67.3973684 Z M87.2972205,67.2552632 L89.2393258,66.5210526 C88.8603784,65.2184211 87.8182731,63.3236842 86.7761679,61.9026316 L84.9761679,62.5894737 C85.9945889,64.0342105 86.9656416,66 87.2972205,67.2552632 Z M74.0103784,71.4 C76.3787995,70.9973684 79.6235363,70.4526316 82.7261679,69.9078947 L82.6077468,68.0368421 L81.7079248,68.1734311 C78.705137,68.6311005 75.7005698,69.1047847 73.6551153,69.3631579 L74.0103784,71.4 Z" id="形状结合" fill-rule="nonzero"></path>
            </g>
        </g>
    </g>
</svg>