<?xml version="1.0" encoding="UTF-8"?>
<svg width="20px" height="20px" viewBox="0 0 20 20" version="1.1" xmlns="http://www.w3.org/2000/svg" xmlns:xlink="http://www.w3.org/1999/xlink">
    <title>编组 8</title>
    <g id="审方配药" stroke="none" stroke-width="1" fill="none" fill-rule="evenodd">
        <g id="失效订单-取消配送" transform="translate(-228.000000, -638.000000)">
            <g id="编组-63备份" transform="translate(212.000000, 618.000000)">
                <g id="编组-8" transform="translate(16.000000, 20.000000)">
                    <rect id="矩形" x="0" y="0" width="20" height="20"></rect>
                    <g id="编组-19" transform="translate(2.000000, 5.000000)" stroke="#217BA0" stroke-linecap="round" stroke-width="1.3">
                        <g id="编组-12">
                            <path d="M2.16928584,0 C4.11337776,0 7.02951566,0 10.9176995,0 C11.1286262,0 11.3310181,0.0833007644 11.4808351,0.231776187 L15.7631356,4.47573037 C15.9147237,4.62596103 16,4.83053395 16,5.04395419 L16,9.21038813 C16,9.65221593 15.6418278,10.0103881 15.2,10.0103881 C14.4945661,10.0103881 13.9654906,10.0103881 13.6127736,10.0103881 M9.57610029,10.0103881 L6.01047299,10.0103881 M2.03464361,10.0103881 C1.76027836,10.0103881 1.34873049,10.0103881 0.8,10.0103881 C0.3581722,10.0103881 0,9.65221593 0,9.21038813 C0,6.22020388 0,3.97756569 0,2.48247357" id="形状"></path>
                            <circle id="椭圆形" cx="3.99773774" cy="10.0150458" r="1.77264155"></circle>
                            <circle id="椭圆形备份" cx="11.5314643" cy="10.0150458" r="1.77264155"></circle>
                        </g>
                        <g id="编组-9" transform="translate(1.600000, 2.133333)">
                            <line x1="0.444444444" y1="1.33333333" x2="3.11111111" y2="1.33333333" id="直线"></line>
                            <line x1="1.77777778" y1="0" x2="1.77777778" y2="2.66666667" id="直线备份"></line>
                        </g>
                    </g>
                </g>
            </g>
        </g>
    </g>
</svg>