<?xml version="1.0" encoding="UTF-8"?>
<svg xmlns="http://www.w3.org/2000/svg" xmlns:xlink="http://www.w3.org/1999/xlink" width="160px" height="160px" viewBox="0 0 160 160" version="1.1">
  <title>Function</title>
  <defs>
    <rect id="path-1" x="0" y="0" width="160" height="160"></rect>
    <mask id="mask-2" maskContentUnits="userSpaceOnUse" maskUnits="objectBoundingBox" x="0" y="0" width="160" height="160" fill="white">
      <use xlink:href="#path-1"></use>
    </mask>
    <linearGradient x1="64.0223567%" y1="100%" x2="64.0223567%" y2="0%" id="linearGradient-3">
      <stop stop-color="#FFFFFF" stop-opacity="0.5" offset="0%"></stop>
      <stop stop-color="#F2F3F5" offset="100%"></stop>
    </linearGradient>
    <linearGradient x1="64.0223567%" y1="96.9562861%" x2="64.0223567%" y2="0%" id="linearGradient-4">
      <stop stop-color="#F2F3F5" stop-opacity="0.3" offset="0%"></stop>
      <stop stop-color="#F2F3F5" offset="100%"></stop>
    </linearGradient>
    <linearGradient x1="64.0223567%" y1="96.9562861%" x2="64.0223567%" y2="0%" id="linearGradient-5">
      <stop stop-color="#F2F3F5" stop-opacity="0.3" offset="0%"></stop>
      <stop stop-color="#F2F3F5" offset="100%"></stop>
    </linearGradient>
    <linearGradient x1="64.0223567%" y1="100%" x2="64.0223567%" y2="0%" id="linearGradient-6">
      <stop stop-color="#FFFFFF" stop-opacity="0.5" offset="0%"></stop>
      <stop stop-color="#F2F3F5" offset="100%"></stop>
    </linearGradient>
    <linearGradient x1="50%" y1="0%" x2="50%" y2="100%" id="linearGradient-7">
      <stop stop-color="#F2F3F5" offset="0%"></stop>
      <stop stop-color="#DCDEE0" offset="100%"></stop>
    </linearGradient>
    <linearGradient x1="50%" y1="100%" x2="50%" y2="3.061617e-15%" id="linearGradient-8">
      <stop stop-color="#FFFFFF" offset="0%"></stop>
      <stop stop-color="#DCDEE0" offset="100%"></stop>
    </linearGradient>
    <radialGradient cx="50%" cy="54.4205729%" fx="50%" fy="54.4205729%" r="297.678829%" gradientTransform="translate(0.500000,0.544206),scale(0.163043,1.000000),rotate(180.000000),scale(1.000000,0.326175),translate(-0.500000,-0.544206)" id="radialGradient-9">
      <stop stop-color="#EBEDF0" offset="0%"></stop>
      <stop stop-color="#F2F3F5" stop-opacity="0.3" offset="100%"></stop>
    </radialGradient>
    <linearGradient x1="50%" y1="34.2614215%" x2="50%" y2="100%" id="linearGradient-10">
      <stop stop-color="#F2F3F5" offset="0%"></stop>
      <stop stop-color="#DCDEE0" offset="100%"></stop>
    </linearGradient>
    <path d="M47.5,0.866025404 L84.3371686,22.1339746 C85.2653718,22.669873 85.8371686,23.660254 85.8371686,24.7320508 L85.8371686,67.2679492 C85.8371686,68.339746 85.2653718,69.330127 84.3371686,69.8660254 L47.5,91.1339746 C46.5717968,91.669873 45.4282032,91.669873 44.5,91.1339746 L7.66283143,69.8660254 C6.7346282,69.330127 6.16283143,68.339746 6.16283143,67.2679492 L6.16283143,24.7320508 C6.16283143,23.660254 6.7346282,22.669873 7.66283143,22.1339746 L44.5,0.866025404 C45.4282032,0.330127019 46.5717968,0.330127019 47.5,0.866025404 Z" id="path-11"></path>
    <linearGradient x1="50%" y1="14.0171105%" x2="50%" y2="91.0788952%" id="linearGradient-13">
      <stop stop-color="#F2F3F5" stop-opacity="0" offset="0%"></stop>
      <stop stop-color="#DCDEE0" stop-opacity="0.419044384" offset="100%"></stop>
    </linearGradient>
    <linearGradient x1="50%" y1="52.0815642%" x2="50%" y2="100%" id="linearGradient-14">
      <stop stop-color="#FFFFFF" offset="0%"></stop>
      <stop stop-color="#F2F2F4" offset="100%"></stop>
    </linearGradient>
  </defs>
  <g id="审方配药" stroke="none" stroke-width="1" fill="none" fill-rule="evenodd">
    <g id="【合理用药】各状态" transform="translate(-1235.000000, -2033.000000)">
      <g id="编组-2备份-15" transform="translate(928.000000, 1907.000000)">
        <g id="Function" transform="translate(307.000000, 126.000000)">
          <g id="分组-5-copy">
            <use id="矩形" stroke="#DCDEE0" mask="url(#mask-2)" stroke-width="2" opacity="0" stroke-dasharray="5" fill-rule="nonzero" xlink:href="#path-1"></use>
            <path d="M2,131 L2,53 L22,53 L22,73 L36,73 L36,131 L2,131 Z" id="合并形状" fill="url(#linearGradient-3)" opacity="0.800000012" transform="translate(19.000000, 92.000000) scale(-1, 1) translate(-19.000000, -92.000000) "></path>
            <path d="M86.5,6 C90.327645,6 93.5643772,8.52999785 94.6291434,12.0089401 L94.7508207,12.0038068 L94.7508207,12.0038068 L95,12 C99.418278,12 103,15.581722 103,20 C103,24.418278 99.418278,28 95,28 C94.6613564,28 94.3276273,27.9789588 94.0000487,27.9381123 L94,28 L80,28 L80.000839,27.8258699 C79.519064,27.9397414 79.0165691,28 78.5,28 C74.9101491,28 72,25.0898509 72,21.5 C72,18.0730453 74.6520344,15.2655065 78.0157184,15.0177681 C78.0052347,14.8469908 78,14.6741067 78,14.5 C78,9.80557963 81.8055796,6 86.5,6 Z" id="合并形状" fill="url(#linearGradient-4)" opacity="0.800000012"></path>
            <path d="M19.016129,23 C20.8682643,23 22.434459,24.2075629 22.9496264,25.8680351 L23.1290323,25.8636364 C25.2669087,25.8636364 27,27.5730946 27,29.6818182 C27,31.7905418 25.2669087,33.5 23.1290323,33.5 C22.96511,33.5 22.8035676,33.4899499 22.6450037,33.4704404 L22.6451613,33.5 L15.8709677,33.5 L15.8706462,33.417062 C15.6377509,33.4713 15.3948541,33.5 15.1451613,33.5 C13.4081367,33.5 12,32.1110652 12,30.3977273 C12,28.7619327 13.2835604,27.4218416 14.9114364,27.3038909 C14.9057632,27.2225752 14.9032258,27.139989 14.9032258,27.0568182 C14.9032258,24.8162994 16.7446353,23 19.016129,23 Z" id="合并形状-copy" fill="url(#linearGradient-5)" opacity="0.800000012"></path>
            <path d="M123,15 L145.231445,15 L145.231445,29 L154,29 L154,106.369141 L123,106.369141 L123,15 Z" id="合并形状" fill="url(#linearGradient-6)" opacity="0.800000012"></path>
          </g>
          <g id="分组-3" transform="translate(15.000000, 113.000000)" fill-rule="nonzero" opacity="0.600000024">
            <g id="分组-3-copy" transform="translate(119.000000, 0.000000)">
              <path d="M6.45961736,3.50937356 L10.6431425,18.7350517 C10.7894694,19.2675993 10.4763757,19.8179357 9.94382812,19.9642626 C9.85750968,19.9879802 9.76839742,20 9.67887986,20 L1.3118296,20 C0.75954485,20 0.3118296,19.5522847 0.3118296,19 C0.3118296,18.9104824 0.323849448,18.8213702 0.34756697,18.7350517 L4.5310921,3.50937356 C4.67741898,2.97682602 5.22775544,2.66373231 5.76030299,2.81005919 C6.10042883,2.9035148 6.36616175,3.16924773 6.45961736,3.50937356 Z" id="三角形" fill="url(#linearGradient-7)"></path>
              <rect id="矩形" fill="url(#linearGradient-8)" x="3.99662162" y="20" width="2.99746622" height="10"></rect>
            </g>
            <g id="分组-3-copy-2">
              <path d="M6.45961736,3.50937356 L10.6431425,18.7350517 C10.7894694,19.2675993 10.4763757,19.8179357 9.94382812,19.9642626 C9.85750968,19.9879802 9.76839742,20 9.67887986,20 L1.3118296,20 C0.75954485,20 0.3118296,19.5522847 0.3118296,19 C0.3118296,18.9104824 0.323849448,18.8213702 0.34756697,18.7350517 L4.5310921,3.50937356 C4.67741898,2.97682602 5.22775544,2.66373231 5.76030299,2.81005919 C6.10042883,2.9035148 6.36616175,3.16924773 6.45961736,3.50937356 Z" id="三角形" fill="url(#linearGradient-7)"></path>
              <rect id="矩形" fill="url(#linearGradient-8)" x="3.99662162" y="20" width="2.99746622" height="10"></rect>
            </g>
          </g>
          <ellipse id="椭圆形-copy-2" fill="url(#radialGradient-9)" fill-rule="nonzero" opacity="0.800000012" cx="80" cy="140.5" rx="46" ry="7.5"></ellipse>
          <g id="多边形-copy" transform="translate(34.000000, 47.000000)">
            <mask id="mask-12" fill="white">
              <use xlink:href="#path-11"></use>
            </mask>
            <use id="Mask" fill="url(#linearGradient-10)" fill-rule="nonzero" xlink:href="#path-11"></use>
            <rect id="矩形" fill="url(#linearGradient-13)" fill-rule="nonzero" style="mix-blend-mode: multiply;" mask="url(#mask-12)" x="46" y="23" width="40" height="71"></rect>
            <path d="M54.0037168,51.5499279 L77.5018584,38.050378 C77.9807421,37.775262 78.5919797,37.9404484 78.8670957,38.4193321 C78.9541756,38.5709086 79,38.7426642 79,38.9174737 L79,64.7158807 C79,65.4319445 78.617179,66.093371 77.9962832,66.4500721 L54.4981416,79.949622 C54.0192579,80.224738 53.4080203,80.0595516 53.1329043,79.5806679 C53.0458244,79.4290914 53,79.2573358 53,79.0825263 L53,53.2841193 C53,52.5680555 53.382821,51.906629 54.0037168,51.5499279 Z" id="矩形" fill="#F7F8FA" fill-rule="nonzero" mask="url(#mask-12)"></path>
            <path d="M13.1362447,51.6287548 C13.4145473,51.1517159 14.0268725,50.9906083 14.5039114,51.2689109 L14.5039114,51.2689109 L38.0078229,64.9809998 C38.6222127,65.3394324 39,65.9972097 39,66.7085104 L39,66.7085104 L39,79.0000944 C39,79.1771649 38.9529832,79.3510603 38.8637553,79.5040059 C38.5854527,79.9810448 37.9731275,80.1421524 37.4960886,79.8638498 L37.4960886,79.8638498 L13.9921771,66.1517609 C13.3777873,65.7933284 13,65.135551 13,64.4242503 L13,64.4242503 L13,52.1326663 C13,51.9555958 13.0470168,51.7817004 13.1362447,51.6287548 Z M13.1362447,38.4959941 C13.4145473,38.0189552 14.0268725,37.8578476 14.5039114,38.1361502 L14.5039114,38.1361502 L38.0078229,51.8482391 C38.6222127,52.2066716 39,52.864449 39,53.5757497 L39,53.5757497 L39,58.7756984 C39,58.9527689 38.9529832,59.1266642 38.8637553,59.2796098 C38.5854527,59.7566487 37.9731275,59.9177563 37.4960886,59.6394537 L37.4960886,59.6394537 L13.9921771,45.9273649 C13.3777873,45.5689323 13,44.9111549 13,44.1998542 L13,44.1998542 L13,38.9999056 C13,38.8228351 13.0470168,38.6489397 13.1362447,38.4959941 Z" id="合并形状" fill="#F7F8FA" fill-rule="nonzero" mask="url(#mask-12)"></path>
            <path d="M47.5,-43.1339746 L84.3371686,-21.8660254 C85.2653718,-21.330127 85.8371686,-20.339746 85.8371686,-19.2679492 L85.8371686,23.2679492 C85.8371686,24.339746 85.2653718,25.330127 84.3371686,25.8660254 L47.5,47.1339746 C46.5717968,47.669873 45.4282032,47.669873 44.5,47.1339746 L7.66283143,25.8660254 C6.7346282,25.330127 6.16283143,24.339746 6.16283143,23.2679492 L6.16283143,-19.2679492 C6.16283143,-20.339746 6.7346282,-21.330127 7.66283143,-21.8660254 L44.5,-43.1339746 C45.4282032,-43.669873 46.5717968,-43.669873 47.5,-43.1339746 Z" fill="url(#linearGradient-14)" fill-rule="nonzero" mask="url(#mask-12)"></path>
          </g>
          <text id="？" opacity="0.122065953" font-family="Arial-Black, Arial Black" font-size="20" font-weight="700"></text>
        </g>
      </g>
    </g>
  </g>
</svg>
