<?xml version="1.0" encoding="UTF-8"?>
<svg width="29px" height="22px" viewBox="0 0 29 22" version="1.1" xmlns="http://www.w3.org/2000/svg" xmlns:xlink="http://www.w3.org/1999/xlink">
    <title>编组 19</title>
    <g id="审方配药" stroke="none" stroke-width="1" fill="none" fill-rule="evenodd" stroke-linecap="round">
        <g id="审方-主要内页" transform="translate(-608.000000, -271.000000)" stroke="#FFFFFF" stroke-width="2">
            <g id="编组-26备份" transform="translate(212.000000, 212.000000)">
                <g id="编组-7" transform="translate(20.000000, 50.000000)">
                    <g id="编组-14备份-2" transform="translate(370.000000, 0.000000)">
                        <g id="编组-19" transform="translate(7.333333, 10.333333)">
                            <g id="编组-12">
                                <path d="M3.52508948,0 C6.68423887,0 11.4229629,0 17.7412617,0 C18.0840176,0 18.4129045,0.135363742 18.6563571,0.376636304 L25.6150953,7.27306186 C25.861426,7.51718668 26,7.84961768 26,8.19642555 L26,14.9668807 C26,15.6848509 25.4179702,16.2668807 24.7,16.2668807 C23.5137422,16.2668807 22.6240488,16.2668807 22.0309199,16.2668807 M15.4729901,16.2668807 L10.328474,16.2668807 M2.65766745,16.2668807 C2.13374135,16.2668807 2.3478522,16.2668807 1.3,16.2668807 C0.582029825,16.2668807 0,15.6848509 0,14.9668807 C0,10.1078313 0,6.46354425 0,4.03401954" id="形状"></path>
                                <circle id="椭圆形" cx="6.49632384" cy="16.2744494" r="2.88054252"></circle>
                                <circle id="椭圆形备份" cx="18.7386296" cy="16.2744494" r="2.88054252"></circle>
                            </g>
                            <g id="编组-9" transform="translate(2.600000, 3.466667)">
                                <line x1="0.722222222" y1="2.16666667" x2="5.05555556" y2="2.16666667" id="直线"></line>
                                <line x1="2.88888889" y1="0" x2="2.88888889" y2="4.33333333" id="直线备份"></line>
                            </g>
                        </g>
                    </g>
                </g>
            </g>
        </g>
    </g>
</svg>