<?xml version="1.0" encoding="UTF-8"?>
<svg width="160px" height="160px" viewBox="0 0 160 160" version="1.1" xmlns="http://www.w3.org/2000/svg" xmlns:xlink="http://www.w3.org/1999/xlink">
    <title>Logo 1.0</title>
    <g id="Logo-1.0" stroke="none" stroke-width="1" fill="none" fill-rule="evenodd">
        <g id="编组-35" transform="translate(15.000000, 26.000000)" stroke="#4CB7ED" stroke-width="6">
            <line x1="64.9172431" y1="8.07620711" x2="83.7031606" y2="90.4640994" id="直线-9" stroke-linecap="round"></line>
            <line x1="40.7270138" y1="76.6542809" x2="122.049692" y2="103.321281" id="直线-9备份-2" stroke-linecap="round"></line>
            <line x1="7.91314225" y1="103.713531" x2="71.6687812" y2="46.6195253" id="直线-9备份" stroke-linecap="round"></line>
            <path d="M67.5724788,4.28746463 L127.273908,103.789846 C128.126352,105.210587 127.665657,107.053368 126.244916,107.905812 C125.77867,108.18556 125.245161,108.333333 124.701429,108.333333 L5.29857114,108.333333 C3.64171689,108.333333 2.29857114,106.990188 2.29857114,105.333333 C2.29857114,104.789601 2.44634464,104.256092 2.72609236,103.789846 L62.4275212,4.28746463 C63.2799657,2.86672383 65.1227465,2.40602864 66.5434873,3.25847312 C66.9657361,3.51182241 67.3191295,3.86521582 67.5724788,4.28746463 Z" id="三角形"></path>
        </g>
    </g>
</svg>