<?xml version="1.0" encoding="UTF-8"?>
<svg width="20px" height="20px" viewBox="0 0 20 20" version="1.1" xmlns="http://www.w3.org/2000/svg" xmlns:xlink="http://www.w3.org/1999/xlink">
    <title>消息通知icon</title>
    <g id="审方配药" stroke="none" stroke-width="1" fill="none" fill-rule="evenodd">
        <g id="审方内页-实际演示（全视图）" transform="translate(-1297.000000, -22.000000)" fill-rule="nonzero">
            <g id="消息通知icon" transform="translate(1297.000000, 22.000000)">
                <rect id="矩形" fill="#000000" opacity="0" x="0" y="0" width="20" height="20"></rect>
                <path d="M18.7525,11.6625 C19.1625,11.6625 19.495,11.3375 19.495,10.935 L19.495,6.1625 C19.495,4.555 18.165,3.2475 16.5275,3.2475 L3.4725,3.2475 C1.8375,3.2475 0.505,4.555 0.505,6.1625 L0.505,14.5775 C0.505,16.185 1.835,17.4925 3.4725,17.4925 L16.5275,17.4925 C18.1625,17.4925 19.495,16.185 19.495,14.5775 C19.495,14.175 19.1625,13.85 18.7525,13.85 C18.3425,13.85 18.01,14.175 18.01,14.5775 C18.01,15.38 17.345,16.035 16.5275,16.035 L3.4725,16.035 C2.655,16.035 1.99,15.3825 1.99,14.5775 L1.99,6.315 L8.435,10.25 C8.9175,10.545 9.46,10.6925 10.0025,10.6925 C10.545,10.6925 11.085,10.545 11.57,10.25 L18.015,6.315 L18.015,10.9325 C18.0125,11.335 18.345,11.6625 18.7525,11.6625 Z M10.7825,9.015 C10.3,9.31 9.7,9.31 9.215,9.015 L2.6075,4.9775 C2.86,4.8 3.1625,4.7025 3.4725,4.705 L16.5275,4.705 C16.8375,4.705 17.14,4.8 17.3925,4.9775 L10.7825,9.015 Z" id="形状" fill="#FFFFFF"></path>
            </g>
        </g>
    </g>
</svg>