<svg xmlns="http://www.w3.org/2000/svg" xmlns:xlink="http://www.w3.org/1999/xlink" viewBox="0 0 225 224" class="design-iconfont">
  <defs>
    <linearGradient x1="64.0223567%" y1="100%" x2="64.0223567%" y2="0%" id="3hupaqz0hc">
      <stop stop-color="#FFF" stop-opacity=".5" offset="0%"/>
      <stop stop-color="#F2F3F5" offset="100%"/>
    </linearGradient>
    <linearGradient x1="64.0223567%" y1="96.9562861%" x2="64.0223567%" y2="0%" id="hwalx3fsud">
      <stop stop-color="#F2F3F5" stop-opacity=".3" offset="0%"/>
      <stop stop-color="#F2F3F5" offset="100%"/>
    </linearGradient>
    <linearGradient x1="64.0223567%" y1="96.9562861%" x2="64.0223567%" y2="0%" id="yib4msu9ke">
      <stop stop-color="#F2F3F5" stop-opacity=".3" offset="0%"/>
      <stop stop-color="#F2F3F5" offset="100%"/>
    </linearGradient>
    <linearGradient x1="64.0223567%" y1="100%" x2="64.0223567%" y2="0%" id="8pcvdxtdgf">
      <stop stop-color="#FFF" stop-opacity=".5" offset="0%"/>
      <stop stop-color="#F2F3F5" offset="100%"/>
    </linearGradient>
    <linearGradient x1="50%" y1="0%" x2="50%" y2="100%" id="wl58c5b67h">
      <stop stop-color="#F2F3F5" offset="0%"/>
      <stop stop-color="#DCDEE0" offset="100%"/>
    </linearGradient>
    <linearGradient x1="50%" y1="100%" x2="50%" y2="0%" id="9x9s0pvaxi">
      <stop stop-color="#FFF" offset="0%"/>
      <stop stop-color="#DCDEE0" offset="100%"/>
    </linearGradient>
    <linearGradient x1="0%" y1="23.6895361%" x2="100%" y2="70.5587204%" id="mptkmsuk1j">
      <stop stop-color="#EAEDF1" offset="0%"/>
      <stop stop-color="#DCDEE0" offset="100%"/>
    </linearGradient>
    <linearGradient x1="0%" y1="49.7201944%" x2="100%" y2="50.2186372%" id="co2m79x4uk">
      <stop stop-color="#EAEDF1" offset="0%"/>
      <stop stop-color="#DCDEE0" offset="100%"/>
    </linearGradient>
    <linearGradient x1="0%" y1="49.5025678%" x2="100%" y2="50.3886883%" id="a8529f02cl">
      <stop stop-color="#EAEDF1" offset="0%"/>
      <stop stop-color="#DCDEE0" offset="100%"/>
    </linearGradient>
    <linearGradient x1="0%" y1="38.7766858%" x2="100%" y2="58.76978%" id="fa1k41mmom">
      <stop stop-color="#EAEDF1" offset="0%"/>
      <stop stop-color="#DCDEE0" offset="100%"/>
    </linearGradient>
    <radialGradient cx="50%" cy="0%" fx="50%" fy="0%" r="100%" gradientTransform="matrix(0 1 -.54694 0 .5 -.5)" id="at1o6lyxfg">
      <stop stop-color="#EBEDF0" offset="0%"/>
      <stop stop-color="#FFF" stop-opacity="0" offset="100%"/>
    </radialGradient>
    <path id="hzcw4eum4a" d="M0 0H224.28035V223.703704H0z"/>
    <mask id="sjdmpm6eab" maskContentUnits="userSpaceOnUse" maskUnits="objectBoundingBox" x="0" y="0" width="224.28035" height="223.703704" fill="#fff">
      <use xlink:href="#hzcw4eum4a"/>
    </mask>
  </defs>
  <g fill="none" fill-rule="evenodd">
    <path d="M2.80350438,183.157407 L2.80350438,74.1018519 L30.8385482,74.1018519 L30.8385044,102.063852 L50.4630788,102.064815 L50.4630788,183.157407 L2.80350438,183.157407 Z" fill="url(#3hupaqz0hc)" opacity=".80000001" transform="matrix(-1 0 0 1 53.266584 0)"/>
    <path d="M117.046308,23.7685185 C122.411876,23.7685185 126.949083,27.3060396 128.441485,32.1703385 L128.671763,32.1610606 L128.671763,32.1610606 L128.961202,32.1574074 C135.154532,32.1574074 140.175219,37.1651854 140.175219,43.3425926 C140.175219,49.5199998 135.154532,54.5277778 128.961202,54.5277778 C128.486301,54.5277778 128.018296,54.4983335 127.558921,54.4411754 L127.559449,54.5277778 L107.934919,54.5277778 L107.935367,54.2844897 C107.260259,54.4435878 106.556132,54.5277778 105.83229,54.5277778 C100.800209,54.5277778 96.7209011,50.4589582 96.7209011,45.4398148 C96.7209011,40.6482601 100.438651,36.7228 105.153933,36.3766587 C105.138764,36.1383296 105.131414,35.8964098 105.131414,35.6527778 C105.131414,29.0892826 110.465894,23.7685185 117.046308,23.7685185 Z" fill="url(#hwalx3fsud)" opacity=".80000001"/>
    <path d="M26.6559005,32.1574074 C29.2523996,32.1574074 31.4479992,33.8461031 32.1699097,36.1680546 L32.2029352,36.1654342 L32.2029352,36.1654342 L32.4211716,36.1611953 C35.4179446,36.1611953 37.8473091,38.5512711 37.8473091,41.4995791 C37.8473091,44.4478871 35.4179446,46.837963 32.4211716,46.837963 C32.1912076,46.837963 31.9645848,46.8238888 31.7421446,46.7965681 L31.7429044,46.837963 L22.2471638,46.837963 L22.2474499,46.7218321 C21.920764,46.7977757 21.5800338,46.837963 21.229763,46.837963 C18.7948849,46.837963 16.8210263,44.8960263 16.8210263,42.5005261 C16.8210263,40.213548 18.6200945,38.3399692 20.9018241,38.1749072 C20.8941908,38.0613392 20.8906294,37.9457989 20.8906294,37.8294402 C20.8906294,34.696863 23.4718292,32.1574074 26.6559005,32.1574074 Z" fill="url(#yib4msu9ke)" opacity=".80000001"/>
    <path d="M172.415519,40.5462963 L215.869837,40.5462963 L215.869837,148.719817 L172.415519,148.719817 L172.415519,40.5462963 Z M172.415519,40.5462963 L203.578497,40.5462963 L203.578497,20.9722222 L172.415519,20.9722222 L172.415519,40.5462963 Z" fill="url(#8pcvdxtdgf)" opacity=".80000001"/>
    <path fill="url(#at1o6lyxfg)" d="M0 194.342593H224.28035V223.70370409999998H0z"/>
    <g fill-rule="nonzero" opacity=".60000002">
      <path d="M9.05284869,4.89960322 L14.9181582,26.1911466 C15.1235067,26.9365781 14.6856829,27.7073376 13.9402513,27.9126861 C13.8191299,27.9460522 13.6940682,27.962963 13.568435,27.962963 L1.83781606,27.962963 C1.06461741,27.962963 0.43781606,27.3361616 0.43781606,26.562963 C0.43781606,26.4373297 0.454726836,26.3122681 0.488092903,26.1911466 L6.35340237,4.89960322 C6.55875087,4.1541717 7.32951037,3.71634791 8.07494188,3.92169642 C8.55039792,4.05267315 8.92187195,4.42414718 9.05284869,4.89960322 Z" fill="url(#wl58c5b67h)" transform="translate(187.834794 157.990741)"/>
      <path fill="url(#9x9s0pvaxi)" d="M5.60227311 27.962963H9.80397794V41.944444499999996H5.60227311z" transform="translate(187.834794 157.990741)"/>
      <g>
        <path d="M9.05284869,4.89960322 L14.9181582,26.1911466 C15.1235067,26.9365781 14.6856829,27.7073376 13.9402513,27.9126861 C13.8191299,27.9460522 13.6940682,27.962963 13.568435,27.962963 L1.83781606,27.962963 C1.06461741,27.962963 0.43781606,27.3361616 0.43781606,26.562963 C0.43781606,26.4373297 0.454726836,26.3122681 0.488092903,26.1911466 L6.35340237,4.89960322 C6.55875087,4.1541717 7.32951037,3.71634791 8.07494188,3.92169642 C8.55039792,4.05267315 8.92187195,4.42414718 9.05284869,4.89960322 Z" fill="url(#wl58c5b67h)" transform="translate(21.026283 157.990741)"/>
        <path fill="url(#9x9s0pvaxi)" d="M5.60227311 27.962963H9.80397794V41.944444499999996H5.60227311z" transform="translate(21.026283 157.990741)"/>
      </g>
    </g>
    <g transform="translate(56.070088 74.101852)" fill-rule="nonzero">
      <path fill="url(#mptkmsuk1j)" d="M11.2140175 46.1388889H103.7296621V113.25H11.2140175z"/>
      <rect fill="url(#co2m79x4uk)" y="111.851852" width="112.140175" height="8.38888889" rx="1.4"/>
      <rect fill="url(#a8529f02cl)" x="14.0175219" width="84.1051314" height="8.38888889" rx="3.99"/>
      <rect fill="#F7F8FA" x="19.6245307" y="53.1296296" width="75.6946183" height="32.1574074" rx="1.4"/>
      <rect fill="#F7F8FA" x="19.6245307" y="92.2777778" width="75.6946183" height="11.1851852" rx="1.4"/>
      <path d="M13.0332133,14.5368485 C13.4170703,13.3695855 14.4865297,12.5833333 15.6903826,12.5833333 L96.4497927,12.5833333 C97.6536455,12.5833333 98.7231049,13.3695855 99.1069619,14.5368485 L112.140175,51.372982 C112.140175,59.2927348 105.864317,65.712963 98.1226533,65.712963 C90.3809897,65.712963 84.1051314,59.2927348 84.1051314,51.372982 C84.1051314,59.2927348 77.8292731,65.712963 70.0876095,65.712963 C62.4771606,65.712963 56.2832497,59.5085253 56.0754729,51.774365 L56.0700876,51.372982 C56.0700876,59.2927348 49.7942293,65.712963 42.0525657,65.712963 C34.4421168,65.712963 28.2482059,59.5085253 28.0404291,51.774365 L28.0350438,51.372982 C28.0350438,59.2927348 21.7591855,65.712963 14.0175219,65.712963 C6.27585833,65.712963 0,59.2927348 0,51.372982 L13.0332133,14.5368485 Z" fill="url(#fa1k41mmom)"/>
    </g>
  </g>
</svg>
