<?xml version="1.0" encoding="UTF-8"?>
<svg width="24px" height="24px" viewBox="0 0 24 24" version="1.1" xmlns="http://www.w3.org/2000/svg" xmlns:xlink="http://www.w3.org/1999/xlink">
    <title>Discovery</title>
    <g id="审方配药" stroke="none" stroke-width="1" fill="none" fill-rule="evenodd">
        <g id="审方-主要内页" transform="translate(-1014.000000, -227.000000)">
            <g id="编组-61备份" transform="translate(998.000000, 211.999846)">
                <g id="Discovery" transform="translate(16.000000, 15.000154)">
                    <rect id="矩形" x="0" y="0" width="24" height="24"></rect>
                    <path d="M11.9960297,2.00000755 C7.31702489,1.99656298 3.26278689,5.2457748 2.24171084,9.81747642 C1.22063479,14.389178 3.50644501,19.0578135 7.74127001,21.0500085 C11.976095,23.0422036 17.0246868,21.8239019 19.8879604,18.1188281 C20.076654,17.7835483 19.993411,17.3606325 19.6917725,17.1220966 C19.390134,16.8835607 18.9599302,16.9004423 18.6778644,17.1618833 L18.6778644,17.1618833 C16.0522115,20.5495452 11.3014244,21.4171771 7.65021208,19.1758532 C3.99899977,16.9345293 2.61649893,12.301933 4.44111466,8.42254844 C6.26573039,4.54316386 10.7132115,2.65918963 14.7647251,4.04941778 C18.8162387,5.43964592 21.1744696,9.65891833 20.2387129,13.8433042 C20.1461022,14.1208213 20.2161175,14.4268859 20.4201377,14.6363831 C20.624158,14.8458804 20.9279881,14.9236974 21.2074268,14.8380238 C21.4868656,14.7523502 21.6950775,14.5175452 21.7469485,14.2295938 L21.7469485,14.2295938 C22.3424908,11.6335972 21.8770509,8.90696806 20.4541827,6.65634271 C19.0313145,4.40571737 16.7690443,2.81778424 14.1706951,2.24583591 C13.4574685,2.0815621 12.7278853,1.99909119 11.9960297,2.00000755 Z" fill="#46A0C0" fill-rule="nonzero"></path>
                    <path d="M11.8632451,17.0112336 C12.1839117,17.0112336 12.3919117,16.9549003 12.4872451,16.8422336 C12.5825784,16.729567 12.6302451,16.5042336 12.6302451,16.1662336 L12.6302451,16.1662336 L12.6302451,14.6582336 L14.4632451,14.6582336 C14.9485784,14.6582336 15.1912451,14.4199003 15.1912451,13.9432336 C15.1912451,13.4579003 14.9485784,13.2152336 14.4632451,13.2152336 L14.4632451,13.2152336 L12.6302451,13.2152336 L12.6302451,12.5522336 L14.4632451,12.5522336 C14.9485784,12.5522336 15.1912451,12.3139003 15.1912451,11.8372336 C15.1912451,11.3519003 14.9485784,11.1092336 14.4632451,11.1092336 L14.4632451,11.1092336 L13.4622451,11.1092336 L15.0222451,8.52223362 C15.1609117,8.27956696 15.2215784,8.08240029 15.2042451,7.93073362 C15.1869117,7.77906696 15.0699117,7.63390029 14.8532451,7.49523362 C14.7579117,7.43456696 14.6669117,7.38473362 14.5802451,7.34573362 C14.4935784,7.30673362 14.4069117,7.29373362 14.3202451,7.30673362 C14.2335784,7.31973362 14.1490784,7.36306696 14.0667451,7.43673362 C13.9844117,7.51040029 13.8955784,7.62523362 13.8002451,7.78123362 C13.4795784,8.32723362 13.1589117,8.87106696 12.8382451,9.41273362 C12.5175784,9.95440029 12.1969117,10.4982336 11.8762451,11.0442336 L11.8762451,11.0442336 L9.90024508,7.74223362 C9.74424508,7.48223362 9.58174508,7.33923362 9.41274508,7.31323362 C9.24374508,7.28723362 9.05957841,7.34356696 8.86024508,7.48223362 C8.68691174,7.60356696 8.58074508,7.75090029 8.54174508,7.92423362 C8.50274508,8.09756696 8.55257841,8.29690029 8.69124508,8.52223362 C8.95124508,8.94690029 9.21557841,9.37806696 9.48424508,9.81573362 C9.75291174,10.2534003 10.0172451,10.684567 10.2772451,11.1092336 L10.2772451,11.1092336 L9.25024508,11.1092336 C8.78224508,11.1092336 8.54824508,11.3519003 8.54824508,11.8372336 C8.54824508,12.3139003 8.79091174,12.5522336 9.27624508,12.5522336 L9.27624508,12.5522336 L11.0832451,12.5522336 L11.0832451,13.2152336 L9.25024508,13.2152336 C8.78224508,13.2152336 8.54824508,13.4579003 8.54824508,13.9432336 C8.54824508,14.4199003 8.79091174,14.6582336 9.27624508,14.6582336 L9.27624508,14.6582336 L11.0832451,14.6582336 L11.0832451,16.1662336 C11.0832451,16.5042336 11.1439117,16.729567 11.2652451,16.8422336 C11.3865784,16.9549003 11.5859117,17.0112336 11.8632451,17.0112336 Z" id="¥" fill="#46A0C0" fill-rule="nonzero"></path>
                </g>
            </g>
        </g>
    </g>
</svg>