<?xml version="1.0" encoding="UTF-8"?>
<svg width="34px" height="34px" viewBox="0 0 34 34" version="1.1" xmlns="http://www.w3.org/2000/svg" xmlns:xlink="http://www.w3.org/1999/xlink">
    <title>编组 13</title>
    <g id="审方配药" stroke="none" stroke-width="1" fill="none" fill-rule="evenodd">
        <g id="审方-主要内页（全视图）" transform="translate(-420.000000, -265.000000)" stroke="#FFFFFF">
            <g id="编组-26备份" transform="translate(212.000000, 212.000000)">
                <g id="编组-7" transform="translate(20.000000, 50.000000)">
                    <g id="编组-15备份" transform="translate(185.000000, 0.000000)">
                        <g id="编组-13" transform="translate(5.000000, 5.000000)">
                            <g id="编组-11" transform="translate(15.000000, 15.000000) rotate(45.000000) translate(-15.000000, -15.000000) translate(6.841076, 1.945721)">
                                <path d="M8.1589244,26.1085581 C3.65287488,26.1085581 3.03164901e-13,22.4556832 3.03164901e-13,17.9496337 L3.03164901e-13,8.1589244 C3.03164901e-13,3.65287488 3.65287488,0 8.1589244,0 C12.6649739,0 16.3178488,3.65287488 16.3178488,8.1589244 L16.3178488,17.9397336 L16.3178488,17.9397336 L16.3178488,17.9496337" id="路径" stroke-width="2" stroke-linecap="round"></path>
                                <path d="M3.03164901e-13,13.0704963 L3.03164901e-13,13.0704963 L3.03164901e-13,8.1589244 C3.03164901e-13,3.65287488 3.65287488,0 8.1589244,0 C12.6649739,0 16.3178488,3.65287488 16.3178488,8.1589244 L16.3178488,13.0948833 L16.3178488,13.0948833" id="路径" stroke-width="1.5"></path>
                            </g>
                            <path d="M10.9804345,12.6131502 C11.8161179,14.6443221 12.6111394,16.037088 13.3654992,16.7914478 C14.119859,17.5458076 15.5005506,18.3287549 17.507574,19.1402897" id="路径-2" stroke-width="2" stroke-linecap="round" transform="translate(14.244004, 15.876720) rotate(2.000000) translate(-14.244004, -15.876720) "></path>
                        </g>
                    </g>
                </g>
            </g>
        </g>
    </g>
</svg>