<?xml version="1.0" encoding="UTF-8"?>
<svg width="22px" height="23px" viewBox="0 0 22 23" version="1.1" xmlns="http://www.w3.org/2000/svg" xmlns:xlink="http://www.w3.org/1999/xlink">
    <title>编组 5</title>
    <g id="审方配药" stroke="none" stroke-width="1" fill="none" fill-rule="evenodd">
        <g id="审方-主要内页" transform="translate(-796.000000, -270.000000)" stroke="#FFFFFF" stroke-width="2">
            <g id="编组-26备份" transform="translate(212.000000, 212.000000)">
                <g id="编组-7" transform="translate(20.000000, 50.000000)">
                    <g id="编组-6备份" transform="translate(555.000000, 0.000000)">
                        <g id="编组-5" transform="translate(9.000000, 8.000000)">
                            <rect id="矩形" x="1" y="7.5" width="20" height="14.5" rx="2"></rect>
                            <path d="M17.0499369,1 C17.2454411,1 17.4319784,1.05697332 17.5900041,1.15837814 C17.7480298,1.25978296 17.8775439,1.40561928 17.9590017,1.58334529 L17.9590017,1.58334529 L20.4416351,7 L1.5583649,7 L4.04099831,1.58334529 C4.12245606,1.40561928 4.25197016,1.25978296 4.40999587,1.15837814 C4.56802158,1.05697332 4.75455891,1 4.95006313,1 L4.95006313,1 Z" id="矩形备份-4"></path>
                            <path d="M7.13817342,14.3338963 L8.99939346,16.6547256 C9.34491856,17.0855746 9.97429411,17.1547432 10.4051431,16.8092181 C10.4469,16.7757306 10.4859009,16.7389445 10.5217697,16.6992144 L15.2337976,11.4799395 L15.2337976,11.4799395" id="路径-4"></path>
                        </g>
                    </g>
                </g>
            </g>
        </g>
    </g>
</svg>