<?xml version="1.0" encoding="UTF-8"?>
<svg width="156px" height="156px" viewBox="0 0 156 156" version="1.1" xmlns="http://www.w3.org/2000/svg" xmlns:xlink="http://www.w3.org/1999/xlink">
    <title>编组 2</title>
    <g id="审方配药" stroke="none" stroke-width="1" fill="none" fill-rule="evenodd" opacity="0.6">
        <g id="编组-2" transform="translate(3.000000, 3.000000)">
            <circle id="椭圆形" stroke="#A1A1A1" stroke-width="5" cx="75" cy="75" r="75"></circle>
            <circle id="椭圆形备份" stroke="#A1A1A1" stroke-width="2" cx="75" cy="75" r="67.1052632"></circle>
            <g id="编组" transform="translate(26.839146, 15.000000)">
                <path d="M48.1608544,10.0395154 L45.8624043,10.8975535 C45.3449974,11.0907075 44.7689739,10.8278485 44.5758198,10.3104416 C44.5289828,10.184978 44.5078237,10.0513847 44.513598,9.91758829 L44.6193806,7.46648406 L44.6193806,7.46648406 L43.0930778,5.54567653 C42.7494898,5.11328114 42.8214825,4.48422236 43.2538779,4.14063442 C43.3587274,4.05731937 43.4792436,3.99591329 43.6082759,3.96005958 L45.9721032,3.30323194 L45.9721032,3.30323194 L47.3272462,1.25806951 C47.6323041,0.797680436 48.2528216,0.67175967 48.7132106,0.976817607 C48.8248482,1.05078969 48.9204904,1.1464319 48.9944625,1.25806951 L50.3496055,3.30323194 L50.3496055,3.30323194 L52.7134328,3.96005958 C53.2455569,4.10791887 53.5570651,4.65915434 53.4092058,5.19127845 C53.3733521,5.32031076 53.311946,5.44082698 53.228631,5.54567653 L51.7023281,7.46648406 L51.7023281,7.46648406 L51.8081107,9.91758829 C51.8319236,10.4693594 51.4039288,10.9359625 50.8521577,10.9597753 C50.7183613,10.9655496 50.584768,10.9443905 50.4593044,10.8975535 L48.1608544,10.0395154 L48.1608544,10.0395154 Z" id="星形" fill="#A1A1A1"></path>
                <path d="M48.1608544,115.322431 L44.0062404,116.873397 C43.4888334,117.066551 42.9128099,116.803692 42.7196559,116.286285 C42.6728189,116.160821 42.6516598,116.027228 42.657434,115.893431 L42.8486437,111.462884 L42.8486437,111.462884 L40.0897414,107.990886 C39.7461534,107.558491 39.8181461,106.929432 40.2505415,106.585844 C40.355391,106.502529 40.4759073,106.441123 40.6049396,106.405269 L44.8777276,105.218006 L44.8777276,105.218006 L47.3272462,101.521227 C47.6323041,101.060838 48.2528216,100.934918 48.7132106,101.239976 C48.8248482,101.313948 48.9204904,101.40959 48.9944625,101.521227 L51.4439811,105.218006 L51.4439811,105.218006 L55.7167692,106.405269 C56.2488933,106.553128 56.5604015,107.104364 56.4125422,107.636488 C56.3766885,107.76552 56.3152824,107.886036 56.2319674,107.990886 L53.473065,111.462884 L53.473065,111.462884 L53.6642747,115.893431 C53.6880876,116.445203 53.2600928,116.911806 52.7083217,116.935618 C52.5745252,116.941393 52.440932,116.920234 52.3154684,116.873397 L48.1608544,115.322431 L48.1608544,115.322431 Z" id="星形备份" fill="#A1A1A1"></path>
                <path d="M8.32415557,97.8477395 L6.02570553,98.7057775 C5.50829857,98.8989316 4.93227507,98.6360726 4.73912104,98.1186657 C4.69228402,97.9932021 4.67112492,97.8596088 4.67689919,97.7258124 L4.78268179,95.2747081 L4.78268179,95.2747081 L3.25637895,93.3539006 C2.91279101,92.9215052 2.98478367,92.2924464 3.41717905,91.9488585 C3.5220286,91.8655435 3.64254482,91.8041374 3.77157713,91.7682837 L6.1354044,91.111456 L6.1354044,91.111456 L7.49054741,89.0662936 C7.79560534,88.6059045 8.41612275,88.4799838 8.87651182,88.7850417 C8.98814943,88.8590138 9.08379164,88.954656 9.15776373,89.0662936 L10.5129067,91.111456 L10.5129067,91.111456 L12.876734,91.7682837 C13.4088581,91.916143 13.7203663,92.4673784 13.572507,92.9995025 C13.5366533,93.1285348 13.4752472,93.2490511 13.3919322,93.3539006 L11.8656293,95.2747081 L11.8656293,95.2747081 L11.9714119,97.7258124 C11.9952248,98.2775835 11.56723,98.7441865 11.0154589,98.7679994 C10.8816625,98.7737737 10.7480692,98.7526146 10.6226056,98.7057775 L8.32415557,97.8477395 L8.32415557,97.8477395 Z" id="星形备份-2" fill="#A1A1A1" transform="translate(8.324156, 93.520909) rotate(45.000000) translate(-8.324156, -93.520909) "></path>
                <path d="M87.9975532,97.8477395 L85.6991031,98.7057775 C85.1816962,98.8989316 84.6056727,98.6360726 84.4125187,98.1186657 C84.3656816,97.9932021 84.3445225,97.8596088 84.3502968,97.7258124 L84.4560794,95.2747081 L84.4560794,95.2747081 L82.9297766,93.3539006 C82.5861886,92.9215052 82.6581813,92.2924464 83.0905767,91.9488585 C83.1954262,91.8655435 83.3159424,91.8041374 83.4449747,91.7682837 L85.808802,91.111456 L85.808802,91.111456 L87.163945,89.0662936 C87.469003,88.6059045 88.0895204,88.4799838 88.5499094,88.7850417 C88.661547,88.8590138 88.7571893,88.954656 88.8311613,89.0662936 L90.1863043,91.111456 L90.1863043,91.111456 L92.5501316,91.7682837 C93.0822557,91.916143 93.3937639,92.4673784 93.2459046,92.9995025 C93.2100509,93.1285348 93.1486448,93.2490511 93.0653298,93.3539006 L91.539027,95.2747081 L91.539027,95.2747081 L91.6448095,97.7258124 C91.6686224,98.2775835 91.2406276,98.7441865 90.6888565,98.7679994 C90.5550601,98.7737737 90.4214668,98.7526146 90.2960032,98.7057775 L87.9975532,97.8477395 L87.9975532,97.8477395 Z" id="星形备份-3" fill="#A1A1A1" transform="translate(87.997553, 93.520909) rotate(-45.000000) translate(-87.997553, -93.520909) "></path>
                <g id="审核不通过" transform="translate(16.162000, 25.152882)" fill="#A1A1A1" fill-rule="nonzero">
                    <path d="M9.548,5.614 L9.548,6.93 L6.496,6.93 L6.496,5.614 L9.548,5.614 Z M6.496,9.366 L6.496,8.036 L9.548,8.036 L9.548,9.366 L6.496,9.366 Z M2.086,9.366 L2.086,8.036 L5.152,8.036 L5.152,9.366 L2.086,9.366 Z M5.152,5.614 L5.152,6.93 L2.086,6.93 L2.086,5.614 L5.152,5.614 Z M6.496,3.206 L5.152,3.206 L5.152,4.48 L0.826,4.48 L0.826,11.214 L2.086,11.214 L2.086,10.5 L5.152,10.5 L5.152,12.964 L6.496,12.964 L6.496,10.5 L9.548,10.5 L9.548,11.158 L10.85,11.158 L10.85,4.48 L6.496,4.48 L6.496,3.206 Z M6.748,1.554 L6.846,1.526 C6.692,1.134 6.37,0.49 6.118,0 L4.76,0.378 C4.942,0.728 5.138,1.19 5.292,1.554 L0,1.554 L0,3.962 L1.288,3.962 L1.288,2.786 L10.332,2.786 L10.332,3.962 L11.662,3.962 L11.662,1.554 L6.748,1.554 Z" id="形状"></path>
                    <path d="M23.758,4.144 C23.548,4.55 23.268,4.984 22.974,5.376 L20.832,5.488 C21.308,4.774 21.882,3.85 22.33,3.122 L26.208,3.122 L26.208,1.932 L23.296,1.932 C23.198,1.414 22.862,0.644 22.512,0.056 L21.294,0.434 C21.532,0.896 21.77,1.47 21.896,1.932 L18.424,1.932 L18.424,3.122 L20.958,3.122 C20.482,3.878 19.81,4.97 19.572,5.222 C19.32,5.488 18.872,5.586 18.578,5.656 C18.676,5.936 18.872,6.552 18.928,6.846 C19.194,6.748 19.642,6.678 21.952,6.496 C20.958,7.476 19.698,8.316 18.354,8.904 C18.578,9.156 18.928,9.618 19.068,9.912 C21.602,8.736 23.758,6.734 24.99,4.55 L23.758,4.144 Z M18.284,6.958 C18.046,6.58 17.038,5.026 16.674,4.508 L16.674,3.99 L18.158,3.99 L18.158,2.786 L16.674,2.786 L16.674,0.154 L15.428,0.154 L15.428,2.786 L13.65,2.786 L13.65,3.99 L15.372,3.99 C14.98,5.796 14.168,7.896 13.3,9.002 C13.538,9.352 13.818,9.926 13.958,10.29 C14.49,9.506 15.022,8.288 15.428,6.986 L15.428,12.992 L16.674,12.992 L16.674,6.118 C17.01,6.762 17.346,7.462 17.514,7.868 L18.284,6.958 Z M24.696,6.692 C23.52,8.96 20.888,10.934 17.654,11.914 C17.892,12.194 18.256,12.698 18.41,13.006 C20.132,12.432 21.672,11.62 22.974,10.612 C23.87,11.368 24.836,12.264 25.34,12.866 L26.348,11.998 C25.802,11.41 24.78,10.542 23.87,9.828 C24.738,9.03 25.466,8.148 26.026,7.168 L24.696,6.692 Z" id="形状"></path>
                    <path d="M39.83,2.422 L39.83,1.092 L27.846,1.092 L27.846,2.422 L33.754,2.422 C32.41,4.704 30.114,6.944 27.454,8.246 C27.734,8.526 28.14,9.058 28.35,9.408 C30.156,8.456 31.78,7.126 33.124,5.628 L33.124,12.978 L34.538,12.978 L34.538,3.864 C34.874,3.388 35.168,2.898 35.462,2.422 L39.83,2.422 Z M34.594,5.39 C36.19,6.524 38.262,8.19 39.2,9.268 L40.292,8.26 C39.27,7.182 37.142,5.6 35.574,4.55 L34.594,5.39 Z" id="形状"></path>
                    <path d="M49.168,4.592 L49.168,5.6 L47.152,5.6 L47.152,4.592 L49.168,4.592 Z M52.43,4.592 L52.43,5.6 L50.344,5.6 L50.344,4.592 L52.43,4.592 Z M50.344,7.602 L50.344,6.552 L52.43,6.552 L52.43,7.602 L50.344,7.602 Z M47.152,7.602 L47.152,6.552 L49.168,6.552 L49.168,7.602 L47.152,7.602 Z M47.152,8.582 L49.168,8.582 L49.168,10.738 L50.344,10.738 L50.344,8.582 L52.43,8.582 L52.43,9.576 C52.43,9.744 52.374,9.8 52.206,9.8 C52.052,9.8 51.506,9.814 50.932,9.786 C51.086,10.08 51.24,10.514 51.282,10.836 C52.164,10.836 52.752,10.822 53.158,10.64 C53.55,10.472 53.662,10.178 53.662,9.59 L53.662,3.612 L51.856,3.612 C51.604,3.458 51.31,3.304 50.96,3.15 C51.954,2.59 52.92,1.876 53.648,1.162 L52.864,0.546 L52.612,0.616 L45.99,0.616 L45.99,1.624 L51.436,1.624 C50.96,1.974 50.4,2.352 49.854,2.618 C49.182,2.338 48.496,2.072 47.908,1.876 L47.068,2.59 C47.81,2.87 48.692,3.248 49.462,3.612 L45.934,3.612 L45.934,10.794 L47.152,10.794 L47.152,8.582 Z M45.024,2.94 C44.52,2.31 43.414,1.33 42.602,0.658 L41.706,1.428 C42.532,2.156 43.61,3.178 44.1,3.822 L45.024,2.94 Z M44.576,5.39 L41.454,5.39 L41.454,6.594 L43.33,6.594 L43.33,10.276 C42.728,10.528 42.042,11.102 41.384,11.802 L42.182,12.88 C42.84,11.984 43.526,11.186 43.974,11.186 C44.282,11.186 44.744,11.634 45.304,11.956 C46.284,12.53 47.418,12.684 49.126,12.684 C50.624,12.684 53.004,12.614 54.012,12.544 C54.026,12.208 54.222,11.62 54.362,11.284 C52.934,11.452 50.75,11.578 49.168,11.578 C47.642,11.578 46.438,11.48 45.528,10.934 C45.094,10.668 44.828,10.458 44.576,10.304 L44.576,5.39 Z" id="形状"></path>
                    <path d="M64.806,8.904 C64.806,9.156 64.708,9.226 64.442,9.24 C64.162,9.254 63.168,9.254 62.216,9.212 C62.398,9.576 62.608,10.164 62.664,10.542 C63.966,10.542 64.862,10.5 65.394,10.29 C65.94,10.094 66.136,9.73 66.136,8.918 L66.136,3.822 L67.956,3.822 L67.956,2.59 L66.136,2.59 L66.136,0.21 L64.806,0.21 L64.806,2.59 L59.542,2.59 L59.542,3.822 L64.806,3.822 L64.806,8.904 Z M60.088,5.278 C60.774,6.146 61.628,7.35 62.006,8.078 L63.098,7.406 C62.706,6.678 61.824,5.53 61.124,4.704 L60.088,5.278 Z M58.996,2.87 C58.576,2.212 57.666,1.246 56.896,0.546 L55.888,1.218 C56.644,1.946 57.54,2.954 57.918,3.626 L58.996,2.87 Z M58.632,5.306 L55.58,5.306 L55.58,6.524 L57.358,6.524 L57.358,9.912 C56.742,10.164 56.028,10.738 55.328,11.494 L56.252,12.768 C56.868,11.872 57.512,11.004 57.946,11.004 C58.254,11.004 58.716,11.466 59.318,11.816 C60.326,12.404 61.488,12.558 63.224,12.558 C64.582,12.558 66.962,12.474 67.928,12.418 C67.956,12.026 68.166,11.354 68.334,10.99 C66.976,11.158 64.806,11.284 63.266,11.284 C61.726,11.284 60.48,11.186 59.584,10.64 C59.164,10.402 58.884,10.192 58.632,10.024 L58.632,5.306 Z" id="形状"></path>
                </g>
                <g id="驳回处方" transform="translate(1.016000, 50.710882)" fill="#A1A1A1" fill-rule="nonzero">
                    <path d="M21.768,7.752 C20.784,6.936 19.512,5.976 18.048,5.016 C19.2,3.936 20.232,2.712 21.048,1.392 L18.96,0.648 C18.264,1.824 17.304,2.88 16.248,3.864 C14.808,2.976 13.296,2.136 11.88,1.464 L10.488,2.928 C11.808,3.6 13.2,4.368 14.568,5.232 C12.984,6.336 11.232,7.248 9.384,7.944 C9.84,8.328 10.632,9.216 10.968,9.648 C12.84,8.832 14.736,7.752 16.416,6.432 C17.976,7.464 19.368,8.52 20.352,9.408 L21.768,7.752 Z M6.12,15.24 C3.84,15.792 1.608,16.32 0,16.632 L0.408,18.432 C2.16,18 4.248,17.448 6.288,16.92 L6.12,15.24 Z M18.528,9.792 C17.952,11.784 17.088,13.488 15.96,14.952 C14.76,13.392 13.776,11.64 13.128,9.792 L11.184,10.368 C12,12.624 13.128,14.736 14.496,16.536 C12.936,18 11.04,19.128 8.784,19.944 C9.12,18.6 9.36,16.248 9.576,12.264 C9.6,11.976 9.6,11.4 9.6,11.4 L7.992,11.4 C8.304,8.856 8.616,4.656 8.808,1.464 L0.672,1.464 L0.672,3.36 L6.768,3.36 C6.6,6.144 6.312,9.312 6.024,11.424 L3.264,11.424 C3.48,9.456 3.648,7.008 3.768,5.04 L1.776,4.92 C1.656,7.536 1.392,11.088 1.104,13.176 L7.608,13.176 C7.32,17.76 6.984,19.608 6.552,20.088 C6.312,20.352 6.096,20.376 5.712,20.376 C5.328,20.376 4.368,20.352 3.312,20.256 C3.648,20.784 3.864,21.528 3.888,22.104 C4.944,22.152 5.976,22.152 6.576,22.104 C7.272,22.032 7.752,21.84 8.184,21.312 C8.4,21.096 8.592,20.688 8.76,20.088 C9.168,20.568 9.744,21.432 9.984,21.936 C12.264,21 14.232,19.776 15.888,18.192 C17.328,19.752 19.008,21.024 20.88,21.912 C21.24,21.336 21.936,20.496 22.44,20.04 C20.544,19.272 18.84,18.072 17.376,16.584 C18.792,14.856 19.896,12.744 20.712,10.32 L18.528,9.792 Z" id="形状"></path>
                    <path d="M38.008,13.536 L32.896,13.536 L32.896,8.64 L38.008,8.64 L38.008,13.536 Z M30.784,6.672 L30.784,15.48 L40.24,15.48 L40.24,6.672 L30.784,6.672 Z M27.88,18.84 L27.88,3.384 L43.216,3.384 L43.216,18.84 L27.88,18.84 Z M25.576,1.104 L25.576,22.224 L27.88,22.224 L27.88,20.928 L43.216,20.928 L43.216,22.224 L45.616,22.224 L45.616,1.104 L25.576,1.104 Z" id="形状"></path>
                    <path d="M64.832,8.28 C66.296,10.104 67.784,12.12 68.552,13.512 L70.544,12.288 C69.488,10.56 67.28,7.848 65.504,5.88 L64.832,6.288 L64.832,0.216 L62.456,0.216 L62.456,17.808 L64.832,17.808 L64.832,8.28 Z M57.92,6 C57.488,9.024 56.792,11.52 55.808,13.608 C54.944,12.096 54.224,10.224 53.648,7.848 C53.864,7.272 54.056,6.624 54.248,6 L57.92,6 Z M58.928,3.888 L58.52,3.96 L54.8,3.96 C55.04,2.928 55.256,1.848 55.448,0.792 L53.12,0.264 C52.472,4.944 51.032,9.528 49.208,11.952 C49.808,12.264 50.624,12.84 51.032,13.224 C51.536,12.528 52.04,11.664 52.472,10.728 C53.096,12.696 53.792,14.328 54.632,15.672 C53.12,17.88 51.176,19.464 48.824,20.544 C49.376,20.904 50.288,21.768 50.672,22.272 C52.76,21.216 54.584,19.728 56.072,17.64 C58.928,20.856 62.624,21.6 66.632,21.6 L70.304,21.6 C70.424,20.976 70.832,19.824 71.192,19.248 C70.16,19.272 67.592,19.272 66.752,19.272 C63.248,19.272 59.888,18.648 57.272,15.696 C58.856,12.792 59.936,9.048 60.44,4.296 L58.928,3.888 Z" id="形状"></path>
                    <path d="M94.872,6.36 L94.872,4.176 L85.008,4.176 L86.616,3.48 C86.28,2.52 85.536,1.08 84.912,0 L82.728,0.816 C83.28,1.848 83.928,3.216 84.24,4.176 L73.968,4.176 L73.968,6.36 L80.256,6.36 C80.016,11.64 79.464,17.472 73.512,20.496 C74.112,20.952 74.808,21.72 75.144,22.32 C79.584,19.92 81.336,16.056 82.104,11.928 L90.192,11.928 C89.808,16.824 89.376,19.056 88.704,19.608 C88.392,19.848 88.08,19.896 87.552,19.896 C86.88,19.896 85.248,19.872 83.544,19.728 C84,20.352 84.312,21.264 84.336,21.912 C85.944,22.008 87.504,22.032 88.392,21.96 C89.4,21.864 90.024,21.672 90.672,21.024 C91.632,20.04 92.088,17.4 92.544,10.776 C92.616,10.464 92.64,9.768 92.64,9.768 L82.44,9.768 C82.584,8.64 82.656,7.488 82.728,6.36 L94.872,6.36 Z" id="路径"></path>
                </g>
                <g id="编组-58" transform="translate(0.000000, 43.038882)"></g>
            </g>
        </g>
    </g>
</svg>