<?xml version="1.0" encoding="UTF-8"?>
<svg xmlns="http://www.w3.org/2000/svg" xmlns:xlink="http://www.w3.org/1999/xlink" width="20px" height="20px" viewBox="0 0 20 20" version="1.1">
  <title>Download</title>
  <g id="页面-1" stroke="none" stroke-width="1" fill="none" fill-rule="evenodd">
    <g id="Icons-Kit" transform="translate(-106.000000, -286.000000)" fill="#000000">
      <g id="编组-40备份" transform="translate(100.000000, 280.000000)">
        <g id="Download" transform="translate(6.000000, 6.000000)">
          <rect id="矩形" fill-rule="nonzero" opacity="0" x="0" y="0" width="20" height="20"></rect>
          <path d="M9.5,2.02618696 C9.5,1.47863829 9.17649579,1.35826661 8.7947984,1.73996399 L6.9552016,3.5795608 C6.56572951,3.96903289 6.57350421,4.60826661 6.9552016,4.98996399 L8.7947984,6.8295608 C9.18427049,7.21903289 9.5,7.08768733 9.5,6.54333784 L9.5,5.0972624 C12.18125,5.0972624 14.375,7.2910124 14.375,9.9722624 C14.375,10.7847624 13.9738176,11.7786634 13.9738176,11.7786634 C13.8812726,12.0374635 13.9655803,12.4065927 14.1653234,12.6063358 L14.3160481,12.7570605 C14.7075914,13.1486038 15.194832,13.0595262 15.3936057,12.5417259 C15.3936057,12.5417259 16,11.2722624 16,9.9722624 C16,6.3972624 13.075,3.4722624 9.5,3.4722624 L9.5,2.02618696 Z M4.625,9.9722624 C4.625,9.1597624 5.02618241,8.16586138 5.02618241,8.16586138 C5.11872744,7.90706131 5.03441972,7.53793212 4.8346766,7.338189 L4.68395192,7.18746432 C4.29240859,6.79592098 3.80516796,6.88499857 3.60639431,7.40279894 C3.60639431,7.40279894 3,8.6722624 3,9.9722624 C3,13.5472624 5.925,16.4722624 9.5,16.4722624 L9.5,17.9183378 C9.5,18.4658865 9.82350421,18.5862582 10.2052016,18.2045608 L12.0447984,16.364964 C12.4342705,15.9754919 12.4264958,15.3362582 12.0447984,14.9545608 L10.2052016,13.114964 C9.81572951,12.7254919 9.5,12.8568375 9.5,13.401187 L9.5,14.8472624 C6.81875,14.8472624 4.625,12.6535124 4.625,9.9722624 Z" id="Shape" fill-opacity="0.25"></path>
        </g>
      </g>
    </g>
  </g>
</svg>
