<?xml version="1.0" encoding="UTF-8"?>
<svg xmlns="http://www.w3.org/2000/svg" xmlns:xlink="http://www.w3.org/1999/xlink" width="16px" height="16px" viewBox="0 0 16 16" version="1.1">
  <title>查询搜索</title>
  <g id="页面-1" stroke="none" stroke-width="1" fill="none" fill-rule="evenodd">
    <g id="Icons-Kit" transform="translate(-100.000000, -192.000000)">
      <g id="查询搜索" transform="translate(100.000000, 192.000000)">
        <rect id="矩形" opacity="0.899999976" x="0" y="0" width="16" height="16"></rect>
        <path d="M7.05634321,1.75 C8.52164728,1.75 9.84823273,2.34393506 10.8084923,3.30419636 C11.7687524,4.26445814 12.3626864,5.5910467 12.3626864,7.05635409 C12.3626864,8.29901865 11.9358385,9.44205799 11.2199765,10.3462581 L11.2199765,10.3462581 L14.728987,13.8555646 L14.1733266,14.4618752 L10.635502,10.9738426 C9.69200011,11.8367545 8.43555459,12.3627082 7.05634321,12.3627082 C5.59103914,12.3627082 4.26445369,11.7687731 3.30419412,10.8085118 C2.34393406,9.84825004 1.75,8.52166147 1.75,7.05635409 C1.75,5.5910467 2.34393406,4.26445814 3.30419412,3.30419636 C4.26445369,2.34393506 5.59103914,1.75 7.05634321,1.75 Z" id="形状结合" stroke-opacity="0.25" stroke="#000000" stroke-width="1.5" fill-rule="nonzero"></path>
      </g>
    </g>
  </g>
</svg>
