<?xml version="1.0" encoding="UTF-8"?>
<svg width="160px" height="196px" viewBox="0 0 160 196" version="1.1" xmlns="http://www.w3.org/2000/svg" xmlns:xlink="http://www.w3.org/1999/xlink">
    <title>空页面-查无数据</title>
    <defs>
        <rect id="path-1" x="0.135135135" y="0" width="159.864865" height="160"></rect>
        <mask id="mask-2" maskContentUnits="userSpaceOnUse" maskUnits="objectBoundingBox" x="0" y="0" width="159.864865" height="160" fill="white">
            <use xlink:href="#path-1"></use>
        </mask>
        <linearGradient x1="64.0223567%" y1="100%" x2="64.0223567%" y2="0%" id="linearGradient-3">
            <stop stop-color="#FFFFFF" stop-opacity="0.5" offset="0%"></stop>
            <stop stop-color="#F2F3F5" offset="100%"></stop>
        </linearGradient>
        <linearGradient x1="64.0223567%" y1="100%" x2="64.0223567%" y2="0%" id="linearGradient-4">
            <stop stop-color="#FFFFFF" stop-opacity="0.5" offset="0%"></stop>
            <stop stop-color="#F2F3F5" offset="100%"></stop>
        </linearGradient>
        <radialGradient cx="50%" cy="54.4205729%" fx="50%" fy="54.4205729%" r="297.427412%" gradientTransform="translate(0.500000,0.544206),scale(0.163181,1.000000),rotate(180.000000),scale(1.000000,0.326175),translate(-0.500000,-0.544206)" id="radialGradient-5">
            <stop stop-color="#EBEDF0" offset="0%"></stop>
            <stop stop-color="#F2F3F5" stop-opacity="0.3" offset="100%"></stop>
        </radialGradient>
        <linearGradient x1="50%" y1="0%" x2="50%" y2="100%" id="linearGradient-6">
            <stop stop-color="#F2F3F5" offset="0%"></stop>
            <stop stop-color="#DCDEE0" offset="100%"></stop>
        </linearGradient>
        <linearGradient x1="50%" y1="100%" x2="50%" y2="3.061617e-15%" id="linearGradient-7">
            <stop stop-color="#FFFFFF" offset="0%"></stop>
            <stop stop-color="#DCDEE0" offset="100%"></stop>
        </linearGradient>
        <linearGradient x1="50%" y1="100%" x2="50%" y2="-2.48949813e-15%" id="linearGradient-8">
            <stop stop-color="#EEEEEE" offset="0%"></stop>
            <stop stop-color="#D8D8D8" offset="100%"></stop>
        </linearGradient>
        <linearGradient x1="100%" y1="50%" x2="-2.22044605e-14%" y2="50%" id="linearGradient-9">
            <stop stop-color="#F2F3F5" offset="0%"></stop>
            <stop stop-color="#DCDEE0" offset="100%"></stop>
        </linearGradient>
        <linearGradient x1="50%" y1="0%" x2="50%" y2="100%" id="linearGradient-10">
            <stop stop-color="#F2F3F5" offset="0%"></stop>
            <stop stop-color="#DCDEE0" offset="100%"></stop>
        </linearGradient>
        <linearGradient x1="50%" y1="0%" x2="50%" y2="100%" id="linearGradient-11">
            <stop stop-color="#FFFFFF" offset="0%"></stop>
            <stop stop-color="#F7F8FA" offset="100%"></stop>
        </linearGradient>
        <linearGradient x1="50%" y1="0%" x2="50%" y2="100%" id="linearGradient-12">
            <stop stop-color="#F2F3F5" offset="0%"></stop>
            <stop stop-color="#DCDEE0" offset="100%"></stop>
        </linearGradient>
        <linearGradient x1="104.980431%" y1="97.2629165%" x2="0%" y2="2.73708352%" id="linearGradient-13">
            <stop stop-color="#EBEDF0" offset="0%"></stop>
            <stop stop-color="#DCDEE0" stop-opacity="0.422530594" offset="100%"></stop>
        </linearGradient>
        <linearGradient x1="64.0223567%" y1="96.9562861%" x2="64.0223567%" y2="0%" id="linearGradient-14">
            <stop stop-color="#F2F3F5" stop-opacity="0.3" offset="0%"></stop>
            <stop stop-color="#F2F3F5" offset="100%"></stop>
        </linearGradient>
        <linearGradient x1="64.0223567%" y1="96.9562861%" x2="64.0223567%" y2="0%" id="linearGradient-15">
            <stop stop-color="#F2F3F5" stop-opacity="0.3" offset="0%"></stop>
            <stop stop-color="#F2F3F5" offset="100%"></stop>
        </linearGradient>
    </defs>
    <g id="审方配药" stroke="none" stroke-width="1" fill="none" fill-rule="evenodd">
        <g id="处方首页-空数据" transform="translate(-960.000000, -480.000000)">
            <g id="空页面-查无数据" transform="translate(960.000000, 480.000000)">
                <g id="Clue">
                    <use id="矩形-copy-7" stroke="#DCDEE0" mask="url(#mask-2)" stroke-width="2" opacity="0" stroke-dasharray="5" fill-rule="nonzero" xlink:href="#path-1"></use>
                    <path d="M115,27 L136.981419,27 L136.981419,36 L145.973818,36 L145.973818,101 L115,101 L115,27 Z" id="合并形状-copy-4" fill="url(#linearGradient-3)" opacity="0.800000012"></path>
                    <path d="M7.10542736e-15,141 L7.10542736e-15,73 L21,73 L21,99 L36,99 L36,141 L7.10542736e-15,141 Z" id="合并形状" fill="url(#linearGradient-4)" opacity="0.800000012" transform="translate(18.000000, 107.000000) scale(-1, 1) translate(-18.000000, -107.000000) "></path>
                    <ellipse id="椭圆形-copy-2" fill="url(#radialGradient-5)" fill-rule="nonzero" opacity="0.800000012" cx="80.0675676" cy="140.5" rx="45.9611486" ry="7.5"></ellipse>
                    <g id="分组-3-copy-2" transform="translate(18.000000, 111.000000)" fill-rule="nonzero" opacity="0.600000024">
                        <path d="M6.45961736,3.50937356 L10.6431425,18.7350517 C10.7894694,19.2675993 10.4763757,19.8179357 9.94382812,19.9642626 C9.85750968,19.9879802 9.76839742,20 9.67887986,20 L1.3118296,20 C0.75954485,20 0.3118296,19.5522847 0.3118296,19 C0.3118296,18.9104824 0.323849448,18.8213702 0.34756697,18.7350517 L4.5310921,3.50937356 C4.67741898,2.97682602 5.22775544,2.66373231 5.76030299,2.81005919 C6.10042883,2.9035148 6.36616175,3.16924773 6.45961736,3.50937356 Z" id="三角形" fill="url(#linearGradient-6)"></path>
                        <rect id="矩形" fill="url(#linearGradient-7)" x="3.99662162" y="20" width="2.99746622" height="10"></rect>
                    </g>
                    <g id="分组" transform="translate(88.661033, 93.569662) rotate(-45.000000) translate(-88.661033, -93.569662) translate(61.661033, 45.569662)" fill-rule="nonzero">
                        <rect id="矩形-copy-8" fill="url(#linearGradient-8)" x="24.0449768" y="52.8486086" width="5.7808277" height="19" rx="1"></rect>
                        <rect id="合并形状" fill="url(#linearGradient-9)" x="22.0720017" y="67.3177545" width="9.89163851" height="27.9951397" rx="1"></rect>
                        <ellipse id="椭圆形" stroke="url(#linearGradient-10)" stroke-width="8" cx="26.9771959" cy="27" rx="26.9771959" ry="27"></ellipse>
                        <circle id="椭圆形" fill="url(#linearGradient-11)" cx="26.9771959" cy="27" r="16"></circle>
                        <path d="M36.6812088,6.50219276 C28.8754837,6.50219276 22.3427655,11.6307587 20.6812088,18.5021928" id="椭圆形" stroke="url(#linearGradient-12)" stroke-width="3" opacity="0.5" stroke-linecap="round" transform="translate(28.681209, 12.502193) rotate(-315.000000) translate(-28.681209, -12.502193) "></path>
                    </g>
                    <line x1="93.2597656" y1="113.773438" x2="108.230469" y2="128.328613" id="直线" stroke="url(#linearGradient-13)" stroke-width="3" opacity="0.851395113" stroke-linecap="round" stroke-linejoin="round"></line>
                    <path d="M92.0574324,2.28571429 C95.2425081,2.28571429 97.9303193,4.41655585 98.7753574,7.33159276 C99.0291892,7.30133392 99.2883211,7.28571429 99.551098,7.28571429 C103.137917,7.28571429 106.045608,10.1958634 106.045608,13.7857143 C106.045608,17.3755652 103.137917,20.2857143 99.551098,20.2857143 C99.3828376,20.2857143 99.2160717,20.2793102 99.0510304,20.2667322 L99.0515203,20.2857143 L87.0616554,20.2857143 L87.0618314,20.078632 C86.5853502,20.2135293 86.082559,20.2857143 85.5629223,20.2857143 C82.5279217,20.2857143 80.0675676,17.8232804 80.0675676,14.7857143 C80.0675676,11.9169018 82.2621427,9.56109315 85.062733,9.30819099 L85.0633446,9.28571429 C85.0633446,5.41972104 88.1947044,2.28571429 92.0574324,2.28571429 Z" id="合并形状-copy-5" fill="url(#linearGradient-14)" opacity="0.800000012"></path>
                    <path d="M9.84121622,41.1428571 C11.722307,41.1428571 13.2998651,42.6293443 13.7250373,44.6313805 C13.9469914,44.5914233 14.1755545,44.5714286 14.4087838,44.5714286 C16.616057,44.5714286 18.4054054,46.3622896 18.4054054,48.5714286 C18.4054054,50.7805676 16.616057,52.5714286 14.4087838,52.5714286 C14.2146734,52.5714286 14.0237951,52.5575786 13.8370816,52.5308123 L13.8378378,52.5714286 L6.98648649,52.5714286 L6.98688722,52.3761945 C6.62961426,52.5026295 6.24513209,52.5714286 5.84459459,52.5714286 C3.95264616,52.5714286 2.41891892,51.0364049 2.41891892,49.1428571 C2.41891892,47.2493094 3.95264616,45.7142857 5.84459459,45.7142857 L5.84459459,45.7142857 L5.84920334,45.4927959 C5.95021191,43.0709319 7.69886284,41.1428571 9.84121622,41.1428571 Z" id="合并形状-copy-6" fill="url(#linearGradient-15)" opacity="0.800000012"></path>
                </g>
                <text id="查无数据" font-family="PingFangSC-Regular, PingFang SC" font-size="14" font-weight="normal" fill="#969799">
                    <tspan x="52" y="191">查无数据</tspan>
                </text>
            </g>
        </g>
    </g>
</svg>