<?xml version="1.0" encoding="UTF-8"?>
<svg width="70px" height="70px" viewBox="0 0 70 70" version="1.1" xmlns="http://www.w3.org/2000/svg" xmlns:xlink="http://www.w3.org/1999/xlink">
    <title>Group 89备份</title>
    <g id="统计分析" stroke="none" stroke-width="1" fill="none" fill-rule="evenodd">
        <g id="经营情况" transform="translate(-1328.000000, -298.000000)">
            <g id="编组-12备份-5" transform="translate(1133.000000, 268.000000)">
                <g id="Group-89备份" transform="translate(195.000000, 30.000000)">
                    <rect id="矩形" x="0" y="0" width="70" height="70"></rect>
                    <rect id="Rectangle-37-Copy-26" x="5" y="5" width="60" height="60"></rect>
                    <g id="contacts" transform="translate(8.000000, 5.000000)" fill="#FFFFFF" fill-rule="nonzero">
                        <path d="M11.25,39.796875 C11.25,38.6308594 10.3066406,37.6875 9.140625,37.6875 L2.109375,37.6875 C0.943359375,37.6875 0,38.6308594 0,39.796875 C0,40.9628906 0.943359375,41.90625 2.109375,41.90625 L9.140625,41.90625 C10.3066406,41.90625 11.25,40.9628906 11.25,39.796875 Z M2.109375,20.9296875 L9.140625,20.9296875 C10.3066406,20.9296875 11.25,19.9863281 11.25,18.8203125 C11.25,17.6542969 10.3066406,16.7109375 9.140625,16.7109375 L2.109375,16.7109375 C0.943359375,16.7109375 0,17.6542969 0,18.8203125 C0,19.9863281 0.943359375,20.9296875 2.109375,20.9296875 Z" id="Shape"></path>
                        <path d="M49.4230769,0 L8.07692308,0 C5.68509615,0 3.75,2.15625 3.75,4.82142857 L3.75,8.57142857 C3.75,9.90401786 4.71754808,10.9821429 5.91346154,10.9821429 C7.109375,10.9821429 8.07692308,9.90401786 8.07692308,8.57142857 L8.07692308,4.82142857 L49.4230769,4.82142857 L49.4230769,55.1785714 L8.07692308,55.1785714 L8.07692308,51.5625 L8.07091346,51.5625 C8.07091346,51.515625 8.07692308,51.4754464 8.07692308,51.4285714 C8.07692308,50.0959821 7.109375,49.0178571 5.91346154,49.0178571 C4.71754808,49.0178571 3.75,50.0959821 3.75,51.4285714 C3.75,51.4754464 3.75,51.515625 3.75600962,51.5625 L3.75,51.5625 L3.75,55.1785714 C3.75,57.84375 5.68509615,60 8.07692308,60 L49.4230769,60 C51.8149038,60 53.75,57.84375 53.75,55.1785714 L53.75,4.82142857 C53.75,2.15625 51.8149038,0 49.4230769,0 Z" id="Shape"></path>
                        <path d="M2.109375,31.4179688 L9.140625,31.4179688 C10.3066406,31.4179688 11.25,30.4746094 11.25,29.3085938 C11.25,28.1425781 10.3066406,27.1992188 9.140625,27.1992188 L2.109375,27.1992188 C0.943359375,27.1992188 0,28.1425781 0,29.3085938 C0,30.4746094 0.943359375,31.4179688 2.109375,31.4179688 Z M29.9765625,33.46875 C24.6796875,33.46875 20.3671875,29.15625 20.3671875,23.859375 C20.3671875,18.5625 24.6796875,14.25 29.9765625,14.25 C35.2734375,14.25 39.5859375,18.5625 39.5859375,23.859375 C39.5859375,29.15625 35.2734375,33.46875 29.9765625,33.46875 Z M29.9765625,18.46875 C27.0058594,18.46875 24.5859375,20.8886719 24.5859375,23.859375 C24.5859375,26.8300781 27.0058594,29.25 29.9765625,29.25 C32.9472656,29.25 35.3671875,26.8300781 35.3671875,23.859375 C35.3671875,20.8886719 32.9472656,18.46875 29.9765625,18.46875 Z" id="Shape"></path>
                        <path d="M41.0273437,44.25 C40.03125,44.25 39.1464844,43.546875 38.9589844,42.5332031 C38.1386719,38.2324219 34.3652344,35.109375 29.9765625,35.109375 C25.5878906,35.109375 21.8144531,38.2324219 20.9941406,42.5332031 C20.8007812,43.546875 19.9160156,44.25 18.9257812,44.25 C18.796875,44.25 18.6621094,44.2382812 18.5332031,44.2148438 C17.390625,43.9980469 16.6347656,42.8964844 16.8515625,41.7480469 C18.0410156,35.4550781 23.5605469,30.890625 29.9765625,30.890625 C36.3867187,30.890625 41.9121094,35.4550781 43.1015625,41.7480469 C43.3183594,42.890625 42.5683594,43.9980469 41.4199219,44.2148438 C41.2910156,44.2382812 41.15625,44.25 41.0273437,44.25 L41.0273437,44.25 Z" id="Shape"></path>
                    </g>
                </g>
            </g>
        </g>
    </g>
</svg>