<?xml version="1.0" encoding="UTF-8"?>
<svg width="70px" height="70px" viewBox="0 0 70 70" version="1.1" xmlns="http://www.w3.org/2000/svg" xmlns:xlink="http://www.w3.org/1999/xlink">
    <title>编组 25</title>
    <g id="统计分析" stroke="none" stroke-width="1" fill="none" fill-rule="evenodd">
        <g id="经营情况" transform="translate(-1021.000000, -298.000000)">
            <g id="编组-12备份-4" transform="translate(826.000000, 268.000000)">
                <g id="编组-25" transform="translate(195.000000, 30.000000)">
                    <rect id="矩形" x="0" y="0" width="70" height="70"></rect>
                    <g id="Group-109" transform="translate(5.000000, 5.000000)">
                        <rect id="Rectangle-41" x="0" y="0" width="60" height="60"></rect>
                        <g id="addusergroup" transform="translate(3.628906, 1.335938)" fill="#FFFFFF" fill-rule="nonzero">
                            <path d="M21.0513699,21.680137 C20.8294521,20.7369863 20.7123288,19.7506849 20.7123288,18.739726 C20.7123288,18.2157534 20.7431507,17.7041096 20.8047945,17.1986301 C17.6856164,16.7609589 15.2876712,14.0856164 15.2876712,10.8493151 C15.2876712,7.3109589 18.160274,4.43835616 21.6986301,4.43835616 C24.0472603,4.43835616 26.1,5.70205479 27.2157534,7.58219178 C28.5041096,6.84863014 29.9342466,6.3369863 31.4506849,6.09041096 C29.6876712,2.48424658 25.9828767,0 21.6986301,0 C15.7068493,0 10.8493151,4.85753425 10.8493151,10.8493151 C10.8493151,16.6253425 15.3616438,21.3472603 21.0513699,21.680137 Z M43.0089041,31.7650685 C40.1486301,30.3719178 36.9308219,29.5890411 33.5342466,29.5890411 C21.5506849,29.5890411 11.8356164,39.3041096 11.8356164,51.2876712 C11.8356164,52.5143836 12.8280822,53.5068493 14.0547945,53.5068493 C15.2815068,53.5068493 16.2739726,52.5143836 16.2739726,51.2876712 C16.2739726,41.7575342 24.0041096,34.0273973 33.5342466,34.0273973 C34.7239726,34.0273973 35.8890411,34.1506849 37.0109589,34.3787671 C38.7369863,33.0657534 40.7835616,32.1472603 43.0089041,31.7650685 L43.0089041,31.7650685 Z M51.1582192,41.9116438 L45.7458904,41.9116438 L45.7458904,36.4993151 C45.7458904,35.2726027 44.7472603,34.2739726 43.5205479,34.2739726 C42.2938356,34.2739726 41.2952055,35.2726027 41.2952055,36.4993151 L41.2952055,41.9116438 L35.8828767,41.9116438 C34.6561644,41.9116438 33.6575342,42.910274 33.6575342,44.1369863 C33.6575342,45.3636986 34.6561644,46.3623288 35.8828767,46.3623288 L41.2952055,46.3623288 L41.2952055,51.7746575 C41.2952055,53.0013699 42.2938356,54 43.5205479,54 C44.7472603,54 45.7458904,53.0013699 45.7458904,51.7746575 L45.7458904,46.3623288 L51.1582192,46.3623288 C52.3849315,46.3623288 53.3835616,45.3636986 53.3835616,44.1369863 C53.3835616,42.910274 52.3849315,41.9116438 51.1582192,41.9116438 Z M44.3835616,18.739726 C44.3835616,12.7479452 39.5260274,7.89041096 33.5342466,7.89041096 C27.5424658,7.89041096 22.6849315,12.7479452 22.6849315,18.739726 C22.6849315,24.7315068 27.5424658,29.5890411 33.5342466,29.5890411 C39.5260274,29.5890411 44.3835616,24.7315068 44.3835616,18.739726 Z M33.5342466,25.1506849 C29.9958904,25.1506849 27.1232877,22.2780822 27.1232877,18.739726 C27.1232877,15.2013699 29.9958904,12.3287671 33.5342466,12.3287671 C37.0726027,12.3287671 39.9452055,15.2013699 39.9452055,18.739726 C39.9452055,22.2780822 37.0726027,25.1506849 33.5342466,25.1506849 Z M23.0979452,26.1924658 C22.1486301,24.8671233 21.4458904,23.3445205 21.0575342,21.7047945 C9.36986301,22.05 0,31.6294521 0,43.3972603 C0,44.6239726 0.992465753,45.6164384 2.21917808,45.6164384 C3.44589041,45.6164384 4.43835616,44.6239726 4.43835616,43.3972603 C4.43835616,33.8671233 12.1684932,26.1369863 21.6986301,26.1369863 C22.1732877,26.1369863 22.6356164,26.1554795 23.0979452,26.1924658 Z" id="Shape"></path>
                        </g>
                    </g>
                </g>
            </g>
        </g>
    </g>
</svg>