<?xml version="1.0" encoding="UTF-8"?>
<svg width="12px" height="12px" viewBox="0 0 12 12" version="1.1" xmlns="http://www.w3.org/2000/svg" xmlns:xlink="http://www.w3.org/1999/xlink">
    <title>schedule</title>
    <g id="审方配药" stroke="none" stroke-width="1" fill="none" fill-rule="evenodd">
        <g id="审方-主要内页" transform="translate(-856.000000, -234.000000)" fill="#F53F3F">
            <g id="编组-26备份" transform="translate(212.000000, 212.000000)">
                <g id="编组-4" transform="translate(634.000000, 16.000000)">
                    <g id="编组-57" transform="translate(10.000000, 2.000000)">
                        <g id="schedule" transform="translate(0.000000, 4.000000)">
                            <path d="M6,0 C2.7,0 0,2.7 0,6 C0,9.3 2.7,12 6,12 C9.3,12 12,9.3 12,6 C12,2.7 9.3,0 6,0 L6,0 Z M6,10.8 C3.36,10.8 1.2,8.64 1.2,6 C1.2,3.36 3.36,1.2 6,1.2 C8.64,1.2 10.8,3.36 10.8,6 C10.8,8.64 8.64,10.8 6,10.8 L6,10.8 Z" id="Shape"></path>
                            <polygon id="Shape" points="6.3 3 5.4 3 5.4 6.6 8.52 8.52 9 7.74 6.3 6.12"></polygon>
                        </g>
                    </g>
                </g>
            </g>
        </g>
    </g>
</svg>