<?xml version="1.0" encoding="UTF-8"?>
<svg xmlns="http://www.w3.org/2000/svg" xmlns:xlink="http://www.w3.org/1999/xlink" width="160px" height="160px" viewBox="0 0 160 160" version="1.1">
  <title>Wifi</title>
  <defs>
    <rect id="path-1" x="0" y="0" width="160" height="160"></rect>
    <mask id="mask-2" maskContentUnits="userSpaceOnUse" maskUnits="objectBoundingBox" x="0" y="0" width="160" height="160" fill="white">
      <use xlink:href="#path-1"></use>
    </mask>
    <linearGradient x1="64.0223567%" y1="100%" x2="64.0223567%" y2="0%" id="linearGradient-3">
      <stop stop-color="#FFFFFF" stop-opacity="0.5" offset="0%"></stop>
      <stop stop-color="#F2F3F5" offset="100%"></stop>
    </linearGradient>
    <linearGradient x1="64.0223567%" y1="96.9562861%" x2="64.0223567%" y2="0%" id="linearGradient-4">
      <stop stop-color="#F2F3F5" stop-opacity="0.3" offset="0%"></stop>
      <stop stop-color="#F2F3F5" offset="100%"></stop>
    </linearGradient>
    <linearGradient x1="64.0223567%" y1="96.9562861%" x2="64.0223567%" y2="0%" id="linearGradient-5">
      <stop stop-color="#F2F3F5" stop-opacity="0.3" offset="0%"></stop>
      <stop stop-color="#F2F3F5" offset="100%"></stop>
    </linearGradient>
    <linearGradient x1="64.0223567%" y1="100%" x2="64.0223567%" y2="0%" id="linearGradient-6">
      <stop stop-color="#FFFFFF" stop-opacity="0.5" offset="0%"></stop>
      <stop stop-color="#F2F3F5" offset="100%"></stop>
    </linearGradient>
    <radialGradient cx="50%" cy="0%" fx="50%" fy="0%" r="100%" gradientTransform="translate(0.500000,0.000000),scale(0.131250,1.000000),rotate(90.000000),scale(1.000000,4.177872),translate(-0.500000,-0.000000)" id="radialGradient-7">
      <stop stop-color="#EBEDF0" offset="0%"></stop>
      <stop stop-color="#FFFFFF" stop-opacity="0" offset="100%"></stop>
    </radialGradient>
    <linearGradient x1="50%" y1="0%" x2="50%" y2="84.4594595%" id="linearGradient-8">
      <stop stop-color="#EBEDF0" offset="0%"></stop>
      <stop stop-color="#DCDEE0" stop-opacity="0" offset="100%"></stop>
    </linearGradient>
    <linearGradient x1="100%" y1="0%" x2="100%" y2="100%" id="linearGradient-9">
      <stop stop-color="#EAEDF1" offset="0%"></stop>
      <stop stop-color="#DCDEE0" offset="100%"></stop>
    </linearGradient>
    <linearGradient x1="100%" y1="0%" x2="100%" y2="100%" id="linearGradient-10">
      <stop stop-color="#EAEDF1" offset="0%"></stop>
      <stop stop-color="#DCDEE0" offset="100%"></stop>
    </linearGradient>
    <linearGradient x1="100%" y1="100%" x2="100%" y2="1.11022302e-14%" id="linearGradient-11">
      <stop stop-color="#EAEDF1" offset="0%"></stop>
      <stop stop-color="#DCDEE0" offset="100%"></stop>
    </linearGradient>
    <linearGradient x1="100%" y1="100%" x2="100%" y2="1.11022302e-14%" id="linearGradient-12">
      <stop stop-color="#EAEDF1" offset="0%"></stop>
      <stop stop-color="#DCDEE0" offset="100%"></stop>
    </linearGradient>
    <linearGradient x1="0%" y1="43.9816743%" x2="100%" y2="54.7026566%" id="linearGradient-13">
      <stop stop-color="#EAEDF1" offset="0%"></stop>
      <stop stop-color="#DCDEE0" offset="100%"></stop>
    </linearGradient>
    <linearGradient x1="94.5347377%" y1="43.8371931%" x2="5.46526228%" y2="54.9483042%" id="linearGradient-14">
      <stop stop-color="#EAEDF1" offset="0%"></stop>
      <stop stop-color="#DCDEE0" offset="100%"></stop>
    </linearGradient>
  </defs>
  <g id="审方配药" stroke="none" stroke-width="1" fill="none" fill-rule="evenodd">
    <g id="【合理用药】各状态" transform="translate(-2076.000000, -2605.000000)">
      <g id="编组-2备份-22" transform="translate(1769.000000, 2481.000000)">
        <g id="Wifi" transform="translate(307.000000, 124.000000)">
          <g id="分组-5-copy">
            <use id="矩形" stroke="#DCDEE0" mask="url(#mask-2)" stroke-width="2" opacity="0" stroke-dasharray="5" fill-rule="nonzero" xlink:href="#path-1"></use>
            <g id="编组-7" transform="translate(2.000000, 7.000000)" opacity="0.800000012">
              <path d="M0,124 L0,46 L20,46 L20,66 L34,66 L34,124 L0,124 Z" id="合并形状" fill="url(#linearGradient-3)" transform="translate(17.000000, 85.000000) scale(-1, 1) translate(-17.000000, -85.000000) "></path>
              <path d="M40.5,5 C44.327645,5 47.5643772,7.52999785 48.6291434,11.0089401 L48.7508207,11.0038068 L48.7508207,11.0038068 L49,11 C53.418278,11 57,14.581722 57,19 C57,23.418278 53.418278,27 49,27 C48.6613564,27 48.3276273,26.9789588 48.0000487,26.9381123 L48,27 L34,27 L34.000839,26.8258699 C33.519064,26.9397414 33.0165691,27 32.5,27 C28.9101491,27 26,24.0898509 26,20.5 C26,17.0730453 28.6520344,14.2655065 32.0157184,14.0177681 C32.0052347,13.8469908 32,13.6741067 32,13.5 C32,8.80557963 35.8055796,5 40.5,5 Z" id="合并形状" fill="url(#linearGradient-4)"></path>
              <path d="M96.016129,0 C97.8682643,0 99.434459,1.20756289 99.9496264,2.86803505 L100.129032,2.86363636 C102.266909,2.86363636 104,4.57309459 104,6.68181818 C104,8.79054177 102.266909,10.5 100.129032,10.5 C99.96511,10.5 99.8035676,10.4899499 99.6450037,10.4704404 L99.6451613,10.5 L92.8709677,10.5 L92.8706462,10.417062 C92.6377509,10.4713 92.3948541,10.5 92.1451613,10.5 C90.4081367,10.5 89,9.11106519 89,7.39772727 C89,5.76193267 90.2835604,4.42184158 91.9114364,4.3038909 C91.9057632,4.22257516 91.9032258,4.13998896 91.9032258,4.05681818 C91.9032258,1.81629937 93.7446353,0 96.016129,0 Z" id="合并形状-copy" fill="url(#linearGradient-5)"></path>
              <path d="M121,8 L143.231445,8 L143.231445,22 L152,22 L152,99.3691406 L121,99.3691406 L121,8 Z" id="合并形状" fill="url(#linearGradient-6)"></path>
            </g>
          </g>
          <rect id="Rectangle" fill="url(#radialGradient-7)" x="0" y="139" width="160" height="21"></rect>
          <g id="分组-19" transform="translate(31.000000, 36.000000)">
            <g id="分组-15" transform="translate(12.000000, 0.000000)">
              <path d="M37,18 C40.8659932,18 44,21.1340068 44,25 C44,27.7921062 42.3652866,30.2024047 40.0007361,31.3260191 L40,58.0681818 C40,59.2982706 39.002816,60.2954545 37.7727273,60.2954545 L36.2272727,60.2954545 C34.997184,60.2954545 34,59.2982706 34,58.0681818 L34.000267,31.3264957 C31.6351757,30.2030863 30,27.792501 30,25 C30,21.1340068 33.1340068,18 37,18 Z" id="形状结合" fill="url(#linearGradient-8)" fill-rule="nonzero"></path>
              <g id="椭圆形-+-椭圆形-蒙版" opacity="0.600000024" stroke-linecap="round" stroke-width="7">
                <g id="编组-4">
                  <path d="M20.874882,11.1363636 C17.6026169,14.5392803 15.5909091,19.1632071 15.5909091,24.2569934 C15.5909091,29.3507797 17.6026169,33.9747065 20.874882,37.3776231" id="形状" stroke="url(#linearGradient-9)"></path>
                  <path d="M9.84862849,9.9475983e-14 C3.75588656,6.22526731 1.03028697e-13,14.7468001 1.03028697e-13,24.1455673 C1.03028697e-13,33.5443344 3.75588656,42.0658672 9.84862849,48.2911345" id="形状" stroke="url(#linearGradient-10)"></path>
                  <path d="M57.624882,11.1363636 C54.3526169,14.5392803 52.3409091,19.1632071 52.3409091,24.2569934 C52.3409091,29.3507797 54.3526169,33.9747065 57.624882,37.3776231" id="形状" stroke="url(#linearGradient-11)" transform="translate(54.982896, 24.256993) rotate(-180.000000) translate(-54.982896, -24.256993) "></path>
                  <path d="M73.2157911,9.9475983e-14 C67.1230492,6.22526731 63.3671626,14.7468001 63.3671626,24.1455673 C63.3671626,33.5443344 67.1230492,42.0658672 73.2157911,48.2911345" id="形状" stroke="url(#linearGradient-12)" transform="translate(68.291477, 24.145567) rotate(-180.000000) translate(-68.291477, -24.145567) "></path>
                </g>
              </g>
            </g>
            <g id="编组-5" transform="translate(0.000000, 69.000000)" fill-rule="nonzero">
              <rect id="形状结合" fill="url(#linearGradient-13)" x="0" y="0" width="98" height="34" rx="2"></rect>
              <rect id="矩形" fill="#FFFFFF" x="9" y="8" width="80" height="18" rx="1.11363636"></rect>
              <rect id="矩形-copy-12" fill="url(#linearGradient-14)" x="15" y="12" width="18" height="6" rx="1.11363636"></rect>
            </g>
          </g>
        </g>
      </g>
    </g>
  </g>
</svg>
